<svg xmlns="http://www.w3.org/2000/svg" xmlns:xlink="http://www.w3.org/1999/xlink" width="1073" height="366" viewBox="0 0 1073 366"><defs><clipPath id="a"><rect width="1073" height="366" transform="translate(61 942)" fill="#fff"/></clipPath></defs><g transform="translate(-61 -942)" clip-path="url(#a)"><g transform="translate(65.961 1140.81)"><g transform="translate(0 0)"><g transform="translate(0 0)"><path d="M1369.756,572.4a10.026,10.026,0,0,0-7.271,1.031l2.224-5.535a10.3,10.3,0,0,0-5.155,4.558c-1.031-2.062-2.876-3.256-5.155-4.232l3.581,9.007h5.047Z" transform="translate(-637.768 -452.755)" fill="#230545"/><path d="M803.566,565.169l2.442-5.969a12.158,12.158,0,0,0-6.023,6.077L798.9,568.8h5.263l7.271-4.938A11.123,11.123,0,0,0,803.566,565.169Z" transform="translate(-383.685 -448.776)" fill="#230545"/><path d="M1132.124,593.429a9.3,9.3,0,0,1,5.48-7.6.52.52,0,0,0,.108-.488c-.054-.109-.108-.271-.217-.217a3.138,3.138,0,0,0-.76.163,9.184,9.184,0,0,0-5.481,4.666,10.9,10.9,0,0,1,5.155-7.976c.109-.054.109-.163.054-.271a.217.217,0,0,0-.217-.109c-.271.109-.6.706-.814.814a11.325,11.325,0,0,0-6.24,11.015h2.93Z" transform="translate(-534.756 -459.021)" fill="#230545"/><path d="M665,572.263a10.011,10.011,0,0,1,7.759,1.139l-2.388-6.4a10.892,10.892,0,0,1,5.426,5.263,10.232,10.232,0,0,1,5.48-4.829l-3.8,10.418h-5.372Z" transform="translate(-322.439 -452.343)" fill="#230545"/><path d="M1441.808,594.516a14.108,14.108,0,1,0-14.108-14.108A14.08,14.08,0,0,0,1441.808,594.516Z" transform="translate(-671.295 -452.023)" fill="#9c452d"/><path d="M1127.979,550.966l7.271,4.938h5.263l-1.031-3.527a12.157,12.157,0,0,0-6.023-6.077l2.442,5.969A11.221,11.221,0,0,0,1127.979,550.966ZM224,555.416a10.444,10.444,0,0,1,7.759,1.085l-2.387-6.131a11.019,11.019,0,0,1,5.48,5.046,10.279,10.279,0,0,1,5.48-4.612l-3.8,9.984h-5.372Z" transform="translate(-120.728 -442.875)" fill="#230545"/><path d="M1079.218,543.221a33.138,33.138,0,0,0-23.495,9.767H999.455c-4.124,0-9.93,1.465-12.805,4.449l-10.472,10.146a20.253,20.253,0,0,1-12.371,4.992H864.889c-3.907,0-9.387-2.713-12.1-5.372l-7.054-7.162a16.691,16.691,0,0,0-4.558-3.256c-.488-.217-.977-.434-1.465-.6s-1.031-.326-1.519-.488a13.362,13.362,0,0,0-1.573-.326,18.436,18.436,0,0,0-2.442-.163h-57.19a13.869,13.869,0,0,1-8.519-3.31l-2.225-1.736c-1.953-1.9-5.806-3.093-8.519-3.093h-8.519a14.314,14.314,0,0,0-8.79,3.2l-4.938,5.1c-.543.434-1.031.922-1.628,1.411a14.55,14.55,0,0,0-8.248-3.255H711.549a13.228,13.228,0,0,0-7.108,2.822l-5.318-5.263a15.984,15.984,0,0,0-10.2-4.612h-3.961a20.968,20.968,0,0,0-12.7-4.178,21.862,21.862,0,0,0-13.023,4.232c-.6.054-1.248.109-1.9.217-.217.054-.488.108-.705.163-.054,0-.109.054-.217.054-.217.055-.434.109-.6.163a.2.2,0,0,0-.163.054c-.271.054-.488.163-.76.217-.054,0-.109.054-.217.054a1.941,1.941,0,0,0-.6.217.189.189,0,0,0-.108.054,51.423,51.423,0,0,1-17.363,3.147h-.488a50.882,50.882,0,0,1-8.139-.6.327.327,0,0,1-.217-.054,2.223,2.223,0,0,0-.6-.054c-.109,0-.217-.054-.38-.054-.217,0-.38-.054-.6-.054a1.056,1.056,0,0,1-.38-.054c-.217,0-.434-.054-.6-.054h-1.14c-5.643,0-10.581,2.442-13.348,6.348-1.845.38-3.744.76-5.589.977-1.248.163-2.5.326-3.744.434s-2.55.163-3.8.217h-5.535c-3.256,0-7.868,1.248-10.147,3.581l-8.248,7.813a15.97,15.97,0,0,1-9.767,3.8H495.158a16.179,16.179,0,0,1-9.875-4.286l-2.984-2.984a22.276,22.276,0,0,0-7-4.666c-.326-.108-.651-.271-.977-.38A21.08,21.08,0,0,0,467,559.554H441.277a9.517,9.517,0,0,1-5.806-2.333l-1.519-1.357a9.459,9.459,0,0,0-5.806-2.279H407.31a10.229,10.229,0,0,0-6.511,2.6l-5.7,6.131c-2.17,2.17-6.349,4.286-9.387,4.286H361.949c-2.116,0-5.046-1.682-6.511-3.147l-1.682-1.573a10.386,10.386,0,0,0-6.511-2.333h-98.32a15.457,15.457,0,0,1-11.286-4.341l-4.883-4.883a16.394,16.394,0,0,0-10.147-4.341H193.47c-.543,0-1.085.054-1.682.109-.705.109-1.465.271-2.116.434a17.6,17.6,0,0,0-4.558,2.171,20.4,20.4,0,0,0-1.682,1.356,20.794,20.794,0,0,0-1.519,1.573,3.793,3.793,0,0,0-.434.543l-.488.488a8.348,8.348,0,0,1-1.031.922,18.306,18.306,0,0,1-7.217,3.527,8.717,8.717,0,0,1-1.628.163h-45.09c-3.256,0-7.868,1.248-10.2,3.581l-8.3,7.868a16.1,16.1,0,0,1-9.767,3.8H57.114a16.314,16.314,0,0,1-9.875-4.286l-2.93-2.93a22.76,22.76,0,0,0-2.442-2.116c-.705-.489-1.411-.977-2.17-1.411a5.926,5.926,0,0,0-.814-.434,13.855,13.855,0,0,0-1.3-.6c-.217-.109-.434-.163-.651-.271-.543-.217-1.085-.38-1.628-.543-.651-.217-1.357-.38-2.062-.542a22.392,22.392,0,0,0-4.232-.434H13v53.718H1098.208V549.244A32.811,32.811,0,0,0,1079.218,543.221Z" transform="translate(-24.217 -441.045)" fill="#544463"/><g transform="translate(716.936 82.616)"><path d="M1363.985,511.3l4.4,25.122-1.085.217-4.395-25.177Z" transform="translate(-1358.591 -509.483)" fill="#230545"/><path d="M1363.073,514.055l-2.5-4.015a1.749,1.749,0,0,1,1.411-2.062,1.7,1.7,0,0,1,2.007,1.411Zm2.6-.163a2.27,2.27,0,0,1,.977-.6,1.7,1.7,0,0,1,1.628.6,1.83,1.83,0,0,1,.326,1.736,1.733,1.733,0,0,1-1.3,1.14l-4.125.705Z" transform="translate(-1357.517 -507.951)" fill="#230545"/><path d="M1357.749,520.4a1.673,1.673,0,0,0-1.139-.217,1.785,1.785,0,0,0-1.465,2.062,1.761,1.761,0,0,0,2.008,1.465l4.124-.705Zm.326,4.721a2.36,2.36,0,0,0-1.357-.271,2.145,2.145,0,0,0-1.737,2.442,2.12,2.12,0,0,0,2.388,1.736l4.83-.868Z" transform="translate(-1354.959 -513.537)" fill="#230545"/><path d="M1365.258,526.587a2,2,0,0,1,3.527.977,2.035,2.035,0,0,1-1.573,2.388l-4.829.868Zm-5.7,6.294a2.357,2.357,0,0,0-1.356-.271,2.143,2.143,0,0,0-1.845,1.3,2.133,2.133,0,0,0,2.5,2.876l4.829-.868Z" transform="translate(-1355.523 -516.142)" fill="#230545"/><path d="M1372.075,536.187a2,2,0,0,1,3.527.977,2.035,2.035,0,0,1-1.573,2.387l-4.829.868Z" transform="translate(-1361.473 -520.533)" fill="#230545"/></g><g transform="translate(175.407 76.095)"><path d="M368,500l5.426,31.254-1.3.217-5.426-31.2Z" transform="translate(-361.405 -497.793)" fill="#230545"/><path d="M367.007,503.511l-3.038-4.992a2.171,2.171,0,0,1,1.736-2.55,2.145,2.145,0,0,1,2.5,1.736Zm3.2-.217a2.31,2.31,0,0,1,1.248-.76,2.139,2.139,0,0,1,2.008.705,2.23,2.23,0,0,1,.38,2.17,2.151,2.151,0,0,1-1.628,1.411l-5.046.922Z" transform="translate(-360.139 -495.932)" fill="#230545"/><path d="M360.392,511.336a1.867,1.867,0,0,0-1.411-.271,2.25,2.25,0,0,0-1.791,2.55,2.128,2.128,0,0,0,2.5,1.791l5.046-.922Zm.38,5.86a2.557,2.557,0,0,0-1.682-.326,2.583,2.583,0,0,0,.814,5.1l5.969-1.085-5.1-3.689Z" transform="translate(-356.942 -502.835)" fill="#230545"/><path d="M369.636,519.007a2.959,2.959,0,0,1,1.465-.922,2.54,2.54,0,0,1,2.822,2.116,2.654,2.654,0,0,1-1.953,2.984L366,524.27Zm-7,7.813a2.562,2.562,0,0,0-1.682-.326,2.515,2.515,0,0,0-2.225,1.628,2.7,2.7,0,0,0,.434,2.767,2.53,2.53,0,0,0,2.6.814l5.969-1.031Z" transform="translate(-357.667 -506.056)" fill="#230545"/><path d="M377.935,530.907a2.956,2.956,0,0,1,1.465-.922,2.539,2.539,0,0,1,2.821,2.116,2.654,2.654,0,0,1-1.953,2.984l-5.969,1.031Z" transform="translate(-364.881 -511.499)" fill="#230545"/></g><g transform="translate(585.213 77.76)"><path d="M11.622,13.4l-.922.922a40.875,40.875,0,0,1,12.046,28.7h1.411A42.075,42.075,0,0,0,11.622,13.4Z" transform="translate(-5.003 -6.129)" fill="#230545"/><path d="M10.455,7.054a7.143,7.143,0,0,0,2.659-3.527,8.14,8.14,0,0,0-4.558.38A7.172,7.172,0,0,0,6.657,0a7.172,7.172,0,0,0-1.9,3.907A8.181,8.181,0,0,0,.2,3.527,7.389,7.389,0,0,0,2.859,7.054,7.143,7.143,0,0,0,.2,10.581a8.14,8.14,0,0,0,4.558-.38,7.172,7.172,0,0,0,1.9,3.907,7.172,7.172,0,0,0,1.9-3.907,8.181,8.181,0,0,0,4.558.38A7.143,7.143,0,0,0,10.455,7.054Z" transform="translate(-0.2)" fill="#de5833"/><circle cx="2.17" cy="2.17" r="2.17" transform="translate(4.232 4.883)" fill="#ffc16c"/></g><g transform="translate(429.866 94.038)"><path d="M13.434,13.4l.922.922a40.875,40.875,0,0,0-12.046,28.7H.9A41.847,41.847,0,0,1,13.434,13.4Z" transform="translate(-0.9 -6.129)" fill="#230545"/><path d="M15.059,7.054A7.143,7.143,0,0,1,12.4,3.527a8.14,8.14,0,0,1,4.558.38A7.172,7.172,0,0,1,18.857,0a7.172,7.172,0,0,1,1.9,3.907,8.181,8.181,0,0,1,4.558-.38,7.389,7.389,0,0,1-2.659,3.527,7.143,7.143,0,0,1,2.659,3.527,8.14,8.14,0,0,1-4.558-.38,7.172,7.172,0,0,1-1.9,3.907,7.172,7.172,0,0,1-1.9-3.907,8.181,8.181,0,0,1-4.558.38A7.143,7.143,0,0,1,15.059,7.054Z" transform="translate(-6.16)" fill="#de5833"/><circle cx="2.17" cy="2.17" r="2.17" transform="translate(10.581 4.883)" fill="#ffc16c"/></g><path d="M1082.3,566.426l5.264-5.263a5.938,5.938,0,0,0-6.783,3.31,5.84,5.84,0,0,0-5.372-3.473,6.248,6.248,0,0,0-1.411.163l5.263,5.263Z" transform="translate(-509.514 -449.599)" fill="#230545"/><g transform="translate(370.342 92.735)"><path d="M744.17,542.558V531.38L742,531v17.363h7.651A5.717,5.717,0,0,1,744.17,542.558Z" transform="translate(-728.001 -528.613)" fill="#544463"/><path d="M730.2,543.638v-14.65l-14-2.387v35.487h19.968v-12.48A5.952,5.952,0,0,1,730.2,543.638Z" transform="translate(-716.2 -526.6)" fill="#230545"/></g><path d="M1184.966,539.158V507.687a1.953,1.953,0,0,0-1.845-2.116,2.116,2.116,0,0,1-1.9-2.279v-4.775a7.533,7.533,0,0,0-1.465-4.015l-1.356-1.573a7.59,7.59,0,0,1-1.519-4.015V483.7a9.028,9.028,0,0,0-1.14-4.124l-2.333-3.527a4.65,4.65,0,0,0-3.364-1.953h-2.55a2.782,2.782,0,0,0-2.551,2.5v33.37a6.173,6.173,0,0,1-1.356,3.853l-.977,1.194a6.569,6.569,0,0,0-1.411,3.853v20.293h23.766Zm260.667-10.147a1.507,1.507,0,0,0,1.411-1.574V512.571a4.638,4.638,0,0,1,.977-2.767l4.721-6.131a3.518,3.518,0,0,1,2.55-1.356h1.085a1.709,1.709,0,0,1,1.519,1.736v16.6a4.379,4.379,0,0,0,1.14,2.659l.922.814a4.956,4.956,0,0,1,1.194,2.659V544.8a1.612,1.612,0,0,1-1.682,1.465h-13.619a1.394,1.394,0,0,1-1.086-.434,1.515,1.515,0,0,1-.434-1.085V530.531a1.2,1.2,0,0,1,.325-1.031A1.421,1.421,0,0,1,1445.633,529.012Z" transform="translate(-549.399 -409.851)" fill="#230545"/><g transform="translate(304.253 84.434)"><path d="M606.17,526H604v35.812h2.17Z" transform="translate(-598.791 -518.024)" fill="#230545"/><path d="M605.035,518.028v-.76c.217-.163.434-.271.651-.434,1.139-1.14,1.411-5.535,1.411-5.535s-4.4.271-5.535,1.411a1.718,1.718,0,0,0-.434.651h-.76c-.163-.217-.271-.434-.434-.651-1.14-1.14-5.535-1.411-5.535-1.411s.271,4.4,1.411,5.535a1.718,1.718,0,0,0,.651.434v.76c-.217.163-.434.271-.651.434C594.671,519.6,594.4,524,594.4,524s4.395-.271,5.535-1.411a1.717,1.717,0,0,0,.434-.651h.76c.163.217.271.434.434.651C602.7,523.726,607.1,524,607.1,524s-.271-4.4-1.411-5.535A2.729,2.729,0,0,1,605.035,518.028Z" transform="translate(-594.4 -511.3)" fill="#fff"/><path d="M604.242,523.183a2.442,2.442,0,1,0-2.442-2.442A2.431,2.431,0,0,0,604.242,523.183Z" transform="translate(-597.785 -514.502)" fill="#ffc16c"/><path d="M611,549.341A4.354,4.354,0,0,1,615.341,545,4.354,4.354,0,0,1,611,549.341Z" transform="translate(-601.993 -526.714)" fill="#230545"/></g><g transform="translate(320.624 93.499)"><path d="M643.234,531.7,625.6,559.373l1.194.76,17.635-27.673Z" transform="translate(-625.042 -529.696)" fill="#230545"/><path d="M648.669,529.034a2.272,2.272,0,1,1,3.8,2.5l-4.938,3.527Zm-2.984,9.984-4.558-2.876a2.27,2.27,0,0,1-1.031-2.008,2.234,2.234,0,0,1,1.248-1.9,2.28,2.28,0,0,1,2.279.108,2.551,2.551,0,0,1,.922,1.194Z" transform="translate(-631.671 -528.007)" fill="#230545"/><path d="M645.935,546.359l4.558,2.93a2.281,2.281,0,1,0,2.442-3.853,2,2,0,0,0-1.465-.271Zm-3.635,5.7,5.372,3.418a2.7,2.7,0,0,0,3.689-.868,2.782,2.782,0,0,0-.868-3.744,2.463,2.463,0,0,0-1.736-.326Z" transform="translate(-632.681 -535.836)" fill="#230545"/><path d="M637.8,551.624l-5.372-3.418a2.621,2.621,0,0,1-.705-3.636,2.676,2.676,0,0,1,3.581-.868,2.807,2.807,0,0,1,1.031,1.465Zm-4.178,5.317,5.372,3.419a2.765,2.765,0,0,0,2.876.325,2.722,2.722,0,0,0,0-4.883,2.463,2.463,0,0,0-1.736-.326Z" transform="translate(-627.637 -535.024)" fill="#230545"/><path d="M631.1,562.124l-5.372-3.418a2.62,2.62,0,0,1-.706-3.635,2.689,2.689,0,0,1,3.581-.868,2.806,2.806,0,0,1,1.031,1.465l1.465,6.457Z" transform="translate(-624.572 -539.826)" fill="#230545"/></g><g transform="translate(742.406 86.17)"><path d="M13.434,7.4l.922.922a40.875,40.875,0,0,0-12.046,28.7H.9A41.847,41.847,0,0,1,13.434,7.4Z" transform="translate(-0.9 -3.656)" fill="#230545"/><circle cx="3.527" cy="3.527" r="3.527" transform="translate(10.092 0)" fill="#fff"/></g><g transform="translate(136.914 102.448)"><path d="M7.722,7.4,6.8,8.322a40.875,40.875,0,0,1,12.046,28.7h1.411A41.847,41.847,0,0,0,7.722,7.4Z" transform="translate(-3.11 -3.656)" fill="#230545"/><circle cx="3.527" cy="3.527" r="3.527" transform="translate(0 0)" fill="#fff"/></g><g transform="translate(773.931 85.356)"><path d="M1471.17,527H1469v24.96h2.17Z" transform="translate(-1464.117 -519.404)" fill="#230545"/><path d="M1470.039,519.349v-.76c.163-.163.434-.271.6-.434,1.031-1.031,1.3-5.155,1.3-5.155s-4.124.271-5.209,1.3a2.4,2.4,0,0,0-.434.6h-.76c-.163-.163-.271-.434-.434-.6-.977-1.031-5.1-1.3-5.1-1.3s.272,4.124,1.3,5.209a2.4,2.4,0,0,0,.6.434v.76c-.163.163-.434.271-.6.434-1.031,1.031-1.3,5.209-1.3,5.209s4.124-.271,5.209-1.3a5.609,5.609,0,0,1,.434-.6h.759c.163.163.271.434.434.6,1.031,1.031,5.209,1.3,5.209,1.3s-.272-4.124-1.3-5.209A2.055,2.055,0,0,0,1470.039,519.349Z" transform="translate(-1460 -513)" fill="#ffc16c"/><path d="M1469.242,524.183a2.442,2.442,0,1,0-2.442-2.442A2.431,2.431,0,0,0,1469.242,524.183Z" transform="translate(-1463.11 -515.882)" fill="#fff"/><path d="M1476,547.341a4.353,4.353,0,0,1,4.341-4.341A4.353,4.353,0,0,1,1476,547.341Z" transform="translate(-1467.318 -526.722)" fill="#230545"/></g><g transform="translate(839.059 108.173)"><path d="M1592.4,558.3l-4.4,25.123,1.085.217,4.4-25.177Z" transform="translate(-1583.674 -556.537)" fill="#230545"/><path d="M1590.066,556.488a1.723,1.723,0,0,1,2.008-1.411,1.789,1.789,0,0,1,1.411,2.062l-2.5,4.015Zm.868,8.03-4.123-.705a1.65,1.65,0,0,1-1.3-1.14,1.77,1.77,0,0,1,1.953-2.333,1.852,1.852,0,0,1,.977.6Z" transform="translate(-1582.485 -555.051)" fill="#230545"/><path d="M1593.522,569.905l4.124.705a1.733,1.733,0,0,0,2.008-1.465,1.785,1.785,0,0,0-1.465-2.062,1.672,1.672,0,0,0-1.139.217Zm-.922,5.154,4.829.868a2.12,2.12,0,0,0,2.388-1.736,2.174,2.174,0,0,0-1.737-2.442,2.357,2.357,0,0,0-1.357.271Z" transform="translate(-1585.778 -560.546)" fill="#230545"/><path d="M1588.07,577.819l-4.83-.868a2.035,2.035,0,0,1-1.573-2.388,2.068,2.068,0,0,1,2.333-1.682,2.692,2.692,0,0,1,1.194.706Zm-1.356,5.1,4.829.868a2.066,2.066,0,0,0,2.116-.651,2.2,2.2,0,0,0,.38-2.224,2.143,2.143,0,0,0-1.845-1.3,2.359,2.359,0,0,0-1.356.271Z" transform="translate(-1580.76 -563.196)" fill="#230545"/><path d="M1586.469,587.419l-4.829-.868a2.034,2.034,0,0,1-1.573-2.388,2.067,2.067,0,0,1,2.333-1.682,2.688,2.688,0,0,1,1.194.705Z" transform="translate(-1580.028 -567.587)" fill="#230545"/></g><g transform="translate(14.982 103.98)"><path d="M75.674,550.1,62,571.7l.922.6L76.6,550.7Z" transform="translate(-61.611 -548.594)" fill="#230545"/><path d="M79.92,548.125a1.817,1.817,0,0,1,2.442-.542,1.753,1.753,0,0,1,.488,2.442L79,552.791Zm-2.279,7.759-3.527-2.225a1.775,1.775,0,0,1-.814-1.573,1.685,1.685,0,0,1,.977-1.465,1.667,1.667,0,0,1,1.736.108,2.012,2.012,0,0,1,.705.922Z" transform="translate(-66.78 -547.324)" fill="#230545"/><path d="M77.767,561.515l3.527,2.224a1.736,1.736,0,0,0,2.442-.6,1.757,1.757,0,0,0-.543-2.442,1.673,1.673,0,0,0-1.139-.217ZM75,565.964l4.124,2.659A2.121,2.121,0,0,0,82,567.917a2.094,2.094,0,0,0-.651-2.876,2.356,2.356,0,0,0-1.357-.271Z" transform="translate(-67.558 -553.334)" fill="#230545"/><path d="M71.484,565.664l-4.124-2.659a2.073,2.073,0,0,1-.543-2.822,2.094,2.094,0,0,1,2.767-.706,2.214,2.214,0,0,1,.814,1.14Zm-3.256,4.178,4.124,2.6a2.068,2.068,0,0,0,2.225.217,2.18,2.18,0,0,0,1.194-1.9,2.082,2.082,0,0,0-1.194-1.9,2.355,2.355,0,0,0-1.356-.271Z" transform="translate(-63.662 -552.763)" fill="#230545"/><path d="M66.285,573.909l-4.124-2.6a2.089,2.089,0,0,1,2.225-3.527,2.215,2.215,0,0,1,.814,1.14Z" transform="translate(-61.284 -556.559)" fill="#230545"/></g><path d="M1753.583,592.464l6.35-6.349a5.729,5.729,0,0,0-1.683-.217,7.121,7.121,0,0,1-12.968,0,5.967,5.967,0,0,0-1.682.217l6.4,6.349Z" transform="translate(-815.786 -460.987)" fill="#230545"/><g transform="translate(866.933 90.239)"><path d="M1643.17,549H1641v29.843h2.17Z" transform="translate(-1635.791 -534.35)" fill="#230545"/><path d="M1642.035,541.028v-.76c.217-.163.435-.271.651-.434,1.14-1.14,1.411-5.535,1.411-5.535s-4.4.271-5.535,1.411a1.72,1.72,0,0,0-.434.651h-.76c-.163-.217-.271-.434-.435-.651-1.139-1.139-5.534-1.411-5.534-1.411s.271,4.4,1.411,5.535a1.718,1.718,0,0,0,.651.434v.76c-.217.163-.434.271-.651.434-1.14,1.14-1.411,5.535-1.411,5.535s4.395-.271,5.534-1.411a1.708,1.708,0,0,0,.435-.651h.76c.163.217.271.434.434.651,1.14,1.14,5.535,1.411,5.535,1.411s-.271-4.4-1.411-5.535A2.732,2.732,0,0,1,1642.035,541.028Z" transform="translate(-1631.4 -527.626)" fill="#fff"/><path d="M1641.242,546.183a2.442,2.442,0,1,0-2.441-2.442A2.431,2.431,0,0,0,1641.242,546.183Z" transform="translate(-1634.785 -530.828)" fill="#ffc16c"/><path d="M1853.17,526H1851v27.13h2.17Z" transform="translate(-1731.844 -523.83)" fill="#230545"/><path d="M1849.341,530.682a4.341,4.341,0,1,0-4.34-4.341A4.353,4.353,0,0,0,1849.341,530.682Z" transform="translate(-1729.1 -522)" fill="#fff"/><path d="M1851.17,530.341a2.17,2.17,0,1,0-2.17-2.171A2.176,2.176,0,0,0,1851.17,530.341Z" transform="translate(-1730.929 -523.83)" fill="#ffc16c"/><path d="M1762.49,546.341a4.353,4.353,0,0,1,4.34-4.341A4.353,4.353,0,0,1,1762.49,546.341ZM1648,563.162a4.353,4.353,0,0,1,4.34-4.341A4.353,4.353,0,0,1,1648,563.162Z" transform="translate(-1638.993 -531.148)" fill="#230545"/></g><g transform="translate(1050.085 77.723)"><path d="M1980,503l5.426,31.254-1.3.217-5.426-31.2Z" transform="translate(-1973.405 -500.793)" fill="#230545"/><path d="M1979.007,506.511l-3.038-4.992a2.171,2.171,0,0,1,1.736-2.55,2.146,2.146,0,0,1,2.5,1.736Zm3.2-.217a2.3,2.3,0,0,1,1.248-.76,2.139,2.139,0,0,1,2.007.705,2.231,2.231,0,0,1,.38,2.17,2.152,2.152,0,0,1-1.628,1.411l-5.046.922Z" transform="translate(-1972.139 -498.932)" fill="#230545"/><path d="M1972.392,514.336a1.868,1.868,0,0,0-1.411-.271,2.25,2.25,0,0,0-1.791,2.55,2.128,2.128,0,0,0,2.5,1.791l5.046-.923Zm.379,5.86a2.556,2.556,0,0,0-1.681-.325,2.583,2.583,0,0,0,.814,5.1l5.968-1.085Z" transform="translate(-1968.942 -505.835)" fill="#230545"/><path d="M1981.636,522.007a2.956,2.956,0,0,1,1.465-.922,2.539,2.539,0,0,1,2.821,2.116,2.654,2.654,0,0,1-1.953,2.984L1978,527.27l3.635-5.263Zm-7,7.814a2.559,2.559,0,0,0-1.682-.326,2.515,2.515,0,0,0-2.224,1.628,2.7,2.7,0,0,0,.434,2.767,2.53,2.53,0,0,0,2.6.814l5.969-1.031-5.1-3.852Z" transform="translate(-1969.667 -509.056)" fill="#230545"/><path d="M1989.936,533.907a2.955,2.955,0,0,1,1.465-.922,2.54,2.54,0,0,1,2.821,2.116,2.653,2.653,0,0,1-1.953,2.984l-5.969,1.031Z" transform="translate(-1976.882 -514.499)" fill="#230545"/></g><g transform="translate(513.992 113.534)"><path d="M992,569l5.426,31.254-1.3.217-5.426-31.2Z" transform="translate(-985.405 -566.792)" fill="#230545"/><path d="M991.007,572.511l-3.039-4.992a2.171,2.171,0,0,1,1.736-2.55,2.145,2.145,0,0,1,2.5,1.736Zm3.2-.217a2.306,2.306,0,0,1,1.248-.76,2.139,2.139,0,0,1,2.008.705,2.23,2.23,0,0,1,.38,2.17,2.151,2.151,0,0,1-1.628,1.411l-5.047.922Z" transform="translate(-984.139 -564.932)" fill="#230545"/><path d="M984.392,580.336a1.867,1.867,0,0,0-1.411-.271,2.25,2.25,0,0,0-1.79,2.55,2.128,2.128,0,0,0,2.5,1.791l5.046-.923Zm.38,5.86a2.558,2.558,0,0,0-1.682-.325,2.583,2.583,0,0,0,.814,5.1l5.969-1.085Z" transform="translate(-980.942 -571.835)" fill="#230545"/><path d="M999.935,588.007a2.96,2.96,0,0,1,1.465-.922,2.54,2.54,0,0,1,2.822,2.116,2.655,2.655,0,0,1-1.954,2.985L996.3,593.27Z" transform="translate(-987.966 -575.056)" fill="#230545"/></g><g transform="translate(38.16 83.131)"><path d="M133.9,567.393h4.558l-9.984-29.029h3.744L121.852,508.9l-10.418,29.463h3.852l-10.038,29.029h4.558L104,583.834h35.7Z" transform="translate(-104 -508.9)" fill="#230545"/><path d="M149.434,567.393h4.232l-9.93-29.029h3.744L136.9,508.9l3.744,29.463H136.9l8.41,29.029H141.4l4.883,16.441h8.953Z" transform="translate(-119.048 -508.9)" fill="#544463"/><path d="M128.1,569.006l11.612-5.806H128.1Zm1.3,33.479,16.115-10.255H129.4Z" transform="translate(-115.023 -533.737)" fill="#230545"/></g><path d="M1079.218,537.65a33.138,33.138,0,0,0-23.495,9.767H999.455c-4.124,0-9.93,1.465-12.805,4.449l-10.472,10.147a20.255,20.255,0,0,1-12.371,4.992H864.889c-3.907,0-9.387-2.713-12.1-5.372l-7.054-7.162a16.214,16.214,0,0,0-11.558-4.829h-57.19a13.87,13.87,0,0,1-8.519-3.31l-2.225-1.736c-1.953-1.9-5.806-3.093-8.519-3.093h-8.519a14.315,14.315,0,0,0-8.79,3.2l-4.938,5.1c-.543.434-1.031.922-1.628,1.411a14.547,14.547,0,0,0-8.248-3.256H711.549a13.228,13.228,0,0,0-7.108,2.822l-5.318-5.263a15.985,15.985,0,0,0-10.2-4.612h-3.961a20.968,20.968,0,0,0-12.7-4.178,21.862,21.862,0,0,0-13.023,4.232c-.6.054-1.248.108-1.9.217a23.09,23.09,0,0,0-3.418.922,51.426,51.426,0,0,1-17.363,3.147h-.488a50.911,50.911,0,0,1-8.139-.6,24.2,24.2,0,0,0-3.907-.326c-5.643,0-10.581,2.442-13.348,6.348a70.188,70.188,0,0,1-15.084,1.628h-3.635c-3.256,0-7.868,1.248-10.147,3.581l-8.248,7.814a15.971,15.971,0,0,1-9.767,3.8h-68.64a16.179,16.179,0,0,1-9.875-4.286l-2.984-2.984a21.777,21.777,0,0,0-15.3-6.294H441.277a9.517,9.517,0,0,1-5.806-2.333l-1.519-1.357a9.459,9.459,0,0,0-5.806-2.279H407.31a10.23,10.23,0,0,0-6.511,2.6l-5.7,6.131c-2.17,2.17-6.349,4.287-9.387,4.287H361.949c-2.116,0-5.046-1.682-6.511-3.147l-1.682-1.573a10.385,10.385,0,0,0-6.511-2.333h-98.32a15.457,15.457,0,0,1-11.286-4.341l-4.883-4.884a16.4,16.4,0,0,0-10.147-4.341H193.47c-.543,0-1.085.054-1.682.109a16.018,16.018,0,0,0-9.93,5.589,17.072,17.072,0,0,1-1.953,2.008c-2.387,1.9-6.077,3.69-8.844,3.69H125.97c-3.256,0-7.868,1.248-10.2,3.581l-8.248,7.814a16.1,16.1,0,0,1-9.767,3.8H57.114a16.314,16.314,0,0,1-9.875-4.286l-2.93-2.93a21.726,21.726,0,0,0-15.356-6.349H13V607.1H1098.208V543.673A32.81,32.81,0,0,0,1079.218,537.65Zm-453.075-9.224A5.442,5.442,0,0,1,631.569,523,5.442,5.442,0,0,1,626.143,528.426Z" transform="translate(-24.217 -432.218)" fill="#230545"/></g></g></g></g></svg>