<svg xmlns="http://www.w3.org/2000/svg" xmlns:xlink="http://www.w3.org/1999/xlink" width="1073" height="366" viewBox="0 0 1073 366"><defs><clipPath id="a"><rect width="1073" height="366" transform="translate(61 942)" fill="#fff"/></clipPath><linearGradient id="b" x1="0.5" y1="0.602" x2="0.5" y2="0.154" gradientUnits="objectBoundingBox"><stop offset="0" stop-color="#f3e9de"/><stop offset="0.147" stop-color="#ece8e2"/><stop offset="1" stop-color="#afd2ec"/></linearGradient></defs><g transform="translate(-61 -942)" clip-path="url(#a)"><g transform="translate(45.961 931.81)"><path d="M0,0H1074.357V325.563H0Z" transform="translate(14.379 9.767)" fill="url(#b)"/><g transform="translate(0 0)"><g transform="translate(0 0)"><path d="M13,0H1098.208V361.374H13Z" transform="translate(-6.217)" fill="none" fill-rule="evenodd"/><g transform="translate(0 107.407)"><path d="M1078.743,220.331c-.651.163-1.356.38-2.007.6a15.567,15.567,0,0,0-21.867-8.844,25.577,25.577,0,0,0-31.2-8.682c-1.411.054-2.767.163-4.178.271A21.8,21.8,0,0,0,983.3,215.882c-.38,0-.705-.054-1.085-.054a16.8,16.8,0,0,0-13.619,6.945,33.983,33.983,0,0,0-33.262-5.589,34.74,34.74,0,0,0-9.224-3.039,8.945,8.945,0,0,0-1.736-.217,16.917,16.917,0,0,0-30.494,8.519,22.872,22.872,0,0,0-14.813-1.953,23.278,23.278,0,0,0-18.177,17.743,11.9,11.9,0,0,0-4.883-1.3,6.875,6.875,0,0,0-13.185,1.357,8.437,8.437,0,0,0-5.48,3.907,13.992,13.992,0,0,0-13.348-4.666,14.359,14.359,0,0,0-4.666,1.791,20.11,20.11,0,0,0-15.03-2.876,20.352,20.352,0,0,0-8.248,3.744v-.163a20.088,20.088,0,0,0-39.23-6.077c-.325-.163-.705-.326-1.085-.488a18.165,18.165,0,0,0-17.146,1.682,16.951,16.951,0,0,0-11.123,11.612,35.468,35.468,0,0,0-6.783-.651,36.608,36.608,0,0,0-20.4,6.24,20.089,20.089,0,0,0-35.92,3.364,11.8,11.8,0,0,0-1.953-.108,14.5,14.5,0,0,0-11.992,6.294,20.656,20.656,0,0,0-6.891-1.194,4.38,4.38,0,0,0-.868.054,21.179,21.179,0,0,0-40.37,2.17,19.891,19.891,0,0,0-8.682,4.666,17.571,17.571,0,0,0-3.256-1.465,18.374,18.374,0,0,0-23.278,11.449,18.615,18.615,0,0,0-.76,8.736,18.5,18.5,0,0,0-14.325,5.86,17.492,17.492,0,0,0-7.868-1.845,18.088,18.088,0,0,0-6.186,1.085,20.111,20.111,0,0,0-26.913-18.937,20.068,20.068,0,0,0-29.681-6.349,49.816,49.816,0,0,0-41.618-22.247,51.372,51.372,0,0,0-7.054.488,25.448,25.448,0,0,0-7.651-3.256,15.736,15.736,0,0,0-10.309,1.465l-1.465.814v5.914a14.84,14.84,0,0,0-2.713-.271,15.146,15.146,0,0,0-14.867,12.209,21.2,21.2,0,0,0-8.736-1.9c-.651,0-1.248.054-1.845.109,0-.054,0-.054.054-.109A12.54,12.54,0,0,1,372.6,246.81v-7.976a15.187,15.187,0,0,0-15.193-14.759,15.63,15.63,0,0,0-3.2.326,28.4,28.4,0,0,0-44.439,5.1,17.617,17.617,0,0,0-4.178,2.062,15.855,15.855,0,0,0-23.766-4.5,17.242,17.242,0,0,0-7.6.868,16.9,16.9,0,0,0-31.851-8.9,23.2,23.2,0,0,0-38.091,4.612,18.241,18.241,0,0,0-4.07,1.465,15.569,15.569,0,0,0-21.975-9.17,25.576,25.576,0,0,0-31.2-8.682c-1.411.054-2.767.163-4.178.271a21.791,21.791,0,0,0-36.517,15.464,65.406,65.406,0,0,0-9.007,9.17,33.883,33.883,0,0,0-38.579-11.069,34.741,34.741,0,0,0-9.224-3.039,8.94,8.94,0,0,0-1.736-.217A16.917,16.917,0,0,0,17.3,226.354a24.953,24.953,0,0,0-5.1-1.845v92.84H1097.409v-109.5a23.208,23.208,0,0,0-18.666,12.48Z" transform="translate(-5.852 -197.947)" fill="#fff"/><path d="M1246.97,259.8l146.883,73.469L1246.97,406.737,1127,346.725h33.045Z" transform="translate(-515.756 -226.238)" fill="#c4d7b6"/><path d="M1224.237,259.8l-86.925,86.925h-33.045L1077.3,333.269Z" transform="translate(-493.024 -226.238)" fill="#e3ead3"/><path d="M1336.5,340.7l5.86-5.86,68.531-73.469h-18.122l29.409-24.471,121.435,60.717v25.448l-121.218,60.663Z" transform="translate(-611.581 -215.764)" fill="#c4d7b6"/><path d="M1370.383,236.9l-24.471,24.471h18.123l-79.492,79.546L1223.5,310.369Z" transform="translate(-559.895 -215.764)" fill="#e3ead3"/><path d="M1149.7,393.429l82.368-82.367h-20.348l14.108-14.108.108-.054,146.883,73.469-146.883,73.469L1149.7,405.746,1079,370.369l12.317-6.131Z" transform="translate(-493.802 -243.208)" fill="#c4d7b6"/><path d="M1245.11,295.954l-85.026,85.08L1101.7,351.842l134.511-67.283-11.395,11.395Zm116.66-2.659v23.44l46.99-46.935Z" transform="translate(-504.184 -230.812)" fill="#e3ead3"/><path d="M1487.2,367.74l97.886-97.94,27.456,13.674V403.009l-27.4,13.674Z" transform="translate(-680.51 -230.812)" fill="#c4d7b6"/><path d="M1726.906,359.212l122.3-122.412L1665.7,328.609Z" transform="translate(-762.155 -215.718)" fill="#e3ead3"/><path d="M1778.2,359.212,1900.666,236.8l15.355,8.519V353.026l-10.309,64.9-5.1,2.55Z" transform="translate(-813.612 -215.718)" fill="#c4d7b6"/><path d="M1678.5,374.673l67.392-67.663H1693.91l39.665-39.61H1719.9l36.68-36.3,97.56,48.78v85.08l-97.56,48.78Z" transform="translate(-768.01 -213.111)" fill="#c4d7b6"/><path d="M1657.843,307.01l-67.663,67.446L1486,322.366,1668.531,231.1l-36.679,36.3h13.673l-39.664,39.61Z" transform="translate(-679.961 -213.111)" fill="#e3ead3"/><path d="M1594.1,363.723,1777.446,273l47.857,45.308-5.968,53.989V434.75l-41.618,20.782Z" transform="translate(-729.406 -232.276)" fill="#e3ead3"/><path d="M1522.1,368.323l83.833,30.6,93.708-91.809h-22.3l29.029-29.518Z" transform="translate(-696.473 -234.38)" fill="#e3ead3"/><path d="M1822.771,307.118h-22.3L1829.5,277.6l82.1,39.285v21.162H1791.3Z" transform="translate(-819.604 -234.38)" fill="#c4d7b6"/><path d="M504.316,332.693,357.433,259.224l97.723,97.994Zm-122.629-7.054L232.2,250l99.242,100.165Z" transform="translate(-106.479 -221.756)" fill="#e3ead3"/><path d="M386.02,267l97.723,97.994-98.157,48.943L294.7,368.521V312.47Z" transform="translate(-135.066 -229.532)" fill="#c4d7b6"/><path d="M155.586,250l99.242,100.165-99.242,46.773L64.7,351.521V295.47Z" transform="translate(-29.865 -221.756)" fill="#c4d7b6"/><path d="M337.9,252l22.03,24.471H342.295l75.422,73.469,67.12-24.471Z" transform="translate(-154.825 -222.671)" fill="#e3ead3"/><path d="M285.193,301.54H154.1L253.831,252l24.58,24.58H260.233Z" transform="translate(-70.756 -222.671)" fill="#c4d7b6"/><path d="M949.883,376.414,900.94,400.94,803,303Z" transform="translate(-367.56 -245.998)" fill="#e3ead3"/><path d="M532.4,376.414,679.337,303l42.323,42.323,55.617,55.617-97.94,48.943Z" transform="translate(-243.789 -245.998)" fill="#c4d7b6"/><path d="M741.34,335l146.937,73.469L741.34,481.937,643.4,432.994Z" transform="translate(-294.56 -260.634)" fill="#e3ead3"/><path d="M338.6,334.6,484.778,262,514.3,290.975H503.28l31.959,31.8H493.4l54.152,53.338-62.562,31.037Z" transform="translate(-155.146 -227.245)" fill="#c4d7b6"/><path d="M658.462,322.772l-31.959-31.8h11.015L608,262l147.426,73.686L670.779,376.11l-54.152-53.338Z" transform="translate(-278.368 -227.245)" fill="#e3ead3"/><path d="M.5,338.584V272.6L47.435,249l29.246,28.867H66.155l31.417,31.471H55.954l53.718,53.772-62.02,31.037L.5,370.543V338.584Z" transform="translate(-0.5 -221.298)" fill="#c4d7b6"/><path d="M137.462,309.88l-32.014-32.014h10.8L87,249l147.426,73.306-84.212,42.106L95.736,309.88Z" transform="translate(-40.065 -221.298)" fill="#e3ead3"/><path d="M751.4,372.7,832.845,332l41.184,40.7Z" transform="translate(-343.959 -259.262)" fill="#c4d7b6"/><path d="M901.1,332l81.608,40.7H942.284Z" transform="translate(-412.431 -259.262)" fill="#e3ead3"/><path d="M223.517,289v11.992h-7.379l-63.973,63.485H136.7V331.92Z" transform="translate(-62.797 -239.594)" fill="#c4d7b6"/><path d="M152.61,360.244,223.854,289l146.937,73.469L223.854,435.937,137.2,392.583V363.011Z" transform="translate(-63.026 -239.594)" fill="#e3ead3"/><path d="M392.654,300l-71.19,75.748H306V343.191Z" transform="translate(-140.234 -244.626)" fill="#c4d7b6"/><path d="M321.61,371.244,392.854,300l146.937,73.469L392.854,446.937,306.2,403.583V374.011Z" transform="translate(-140.326 -244.626)" fill="#e3ead3"/><path d="M317.608,330.92v32.556H302.144l-63.973-63.485H230.9V288Z" transform="translate(-105.884 -239.137)" fill="#e3ead3"/><path d="M143.9,288l44.928,44.711v79.871L144.12,434.937,40.7,383.173V339.71Z" transform="translate(-18.887 -239.137)" fill="#c4d7b6"/><path d="M1059.371,334.782l-39.773,47.1-47.1-17.8L1058.774,321l-7.651,13.782Z" transform="translate(-445.089 -254.231)" fill="#e3ead3"/><path d="M907.681,367.772l26.154,7.488,40.532-40.478H963.026L976.808,321l183.454,91.754L976.808,504.509,793.3,412.754Z" transform="translate(-363.123 -254.231)" fill="#c4d7b6"/></g><path d="M1096.883,545.524a9.391,9.391,0,0,1,6.782,2.822,22.622,22.622,0,0,1,9.984-2.279c4.666,0,37.168,1.411,40.8,3.8a9.517,9.517,0,0,1,8.031-4.341,9.88,9.88,0,0,1,5.48,1.682,23.348,23.348,0,0,1,45.416,7.054h-126.1A9.661,9.661,0,0,1,1096.883,545.524ZM461.059,500l7.759,31.146L453.3,525.719Z" transform="translate(-207.609 -228.698)" fill="#447337"/><path d="M1078.132,330.762a8.943,8.943,0,0,0-5.86,1.411l-8.627,5.7a12.081,12.081,0,0,1-8.627,1.845L1042.1,337.6a9.162,9.162,0,0,0-4.829.543l-9.224,3.8a15.117,15.117,0,0,1-8.627.922L947.2,329.84a13.521,13.521,0,0,0-7.054.6l-39.23,14.053A20.192,20.192,0,0,1,886.05,345.9l-25.828-7.651a18.1,18.1,0,0,0-9.17-.271l-54.8,12.317a25.3,25.3,0,0,1-7.542.543l-55.074-4.124a16.461,16.461,0,0,0-7.217,1.031l-10.309,3.8a10.192,10.192,0,0,1-5.969.326l-10.8-2.6a10.266,10.266,0,0,0-4.449-.108,25.672,25.672,0,0,1-5.046.488H688s-3.31-.488-4.938-.868l-11.286-2.225a88.2,88.2,0,0,0-10.255-1.3h-3.581a89.73,89.73,0,0,0-10.255,1.3L616.7,352.738c-9.224,1.9-24.417,5.643-34.51,8.139a54.733,54.733,0,0,1-21,1.085l-88.987-12.914a69.962,69.962,0,0,0-19.914-.054l-13.945,1.953a49.478,49.478,0,0,1-14.976-.109c-1.356-.271-2.713-.488-3.744-.76l-45.742-14.108a43.26,43.26,0,0,0-24.634,0L339,339.119a30.421,30.421,0,0,1-14.976,0l-36.68-11.069c-10.906-3.256-13.728-3.256-24.634,0l-20.131,6.131c-.054,0-.109.054-.163.054a48.305,48.305,0,0,1-21.379,1.465L209.1,333.964a69.962,69.962,0,0,0-19.914-.054l-13.945,1.953a49.481,49.481,0,0,1-14.976-.108c-1.357-.271-2.713-.488-3.744-.76-11.449-3.418-45.742-14.108-45.742-14.108a43.259,43.259,0,0,0-24.634,0l-10.255,3.147a30.418,30.418,0,0,1-14.976,0L24.286,312.856A46.164,46.164,0,0,0,13,311.5v97.94H583.82V388.821h514.389V332.933Z" transform="translate(-6.217 -142.479)" fill="#6fbf5c"/><path d="M1478.852,356.7H1468l5.426-21.7Z" transform="translate(-671.728 -153.228)" fill="#5a9c4b"/><path d="M1658.852,372.7H1648l5.426-21.7Z" transform="translate(-754.06 -160.546)" fill="#447337"/><path d="M1507.718,355.014h-10.852l5.427-21.7ZM1343.852,344.7H1333l5.426-21.7Z" transform="translate(-609.98 -147.739)" fill="#5a9c4b"/><path d="M1331.852,334.7H1321l5.426-21.7Z" transform="translate(-604.491 -143.165)" fill="#447337"/><path d="M1924.03,359.363h-4.5a1.592,1.592,0,0,1-1.573-2.008L1921.806,342l3.852,15.356A1.707,1.707,0,0,1,1924.03,359.363Z" transform="translate(-877.51 -156.429)" fill="#5a9c4b"/><path d="M1899.727,374.8h-3.147a1.1,1.1,0,0,1-1.085-1.411l2.659-10.689,2.659,10.689A1.1,1.1,0,0,1,1899.727,374.8Zm-107.435,0h-3.147a1.1,1.1,0,0,1-1.085-1.411l2.658-10.689,2.659,10.689A1.1,1.1,0,0,1,1792.292,374.8Z" transform="translate(-818.1 -165.898)" fill="#9bd96f"/><g transform="translate(702.401 171.94)"><path d="M1361.524,330.51h9.116a.843.843,0,0,0,.6-1.411l-11.829-11.829a5.324,5.324,0,0,0-4.938.488L1295,356.555h90.615l-24.635-24.634A.815.815,0,0,1,1361.524,330.51Z" transform="translate(-1295 -316.88)" fill="#9bd96f"/><path d="M1424.932,330.885h-9.116a.842.842,0,0,0-.6,1.411l24.689,24.634h34.184L1413.7,317.7l11.829,11.829A.809.809,0,0,1,1424.932,330.885Z" transform="translate(-1349.293 -317.255)" fill="#6fbf5c"/></g><path d="M1428.684,364.476a5.146,5.146,0,0,0-7.108-.054,5.059,5.059,0,0,0-1.41,2.713,3.16,3.16,0,0,0-4.233.163,2.985,2.985,0,0,0,.054,4.341,3.266,3.266,0,0,0,4.449.054,3.552,3.552,0,0,0,.652-.922,5.669,5.669,0,0,0,.542.651,5.148,5.148,0,0,0,7.109.054A4.866,4.866,0,0,0,1428.684,364.476Z" transform="translate(-647.497 -166.046)" fill="#5a9c4b"/><g transform="translate(641.63 166.037)"><path d="M1298,306l16.658,28.6a.823.823,0,0,1-.706,1.248h-5.86a.8.8,0,0,0-.706,1.194l16.116,29.192h36.9l-58.547-58.547A5.446,5.446,0,0,0,1298,306Z" transform="translate(-1235.6 -306)" fill="#6fbf5c"/><path d="M1255.438,335.843h5.861A.823.823,0,0,0,1262,334.6L1245.4,306a5.444,5.444,0,0,0-3.852,1.682L1183,366.229h87.9l-16.17-29.192A.818.818,0,0,1,1255.438,335.843Z" transform="translate(-1183 -306)" fill="#9bd96f"/></g><path d="M1403.931,387.767a7.251,7.251,0,0,0,.325-2.17,7.619,7.619,0,0,0-7.6-7.6,7.511,7.511,0,0,0-4.992,1.9,12.2,12.2,0,0,0-16.5,3.8,8.173,8.173,0,0,0-1.953-.326,6.678,6.678,0,0,0-6.62,4.4h37.331Z" transform="translate(-625.348 -172.896)" fill="#5a9c4b"/><path d="M1413.852,378.7H1403l5.426-21.7Z" transform="translate(-641.997 -163.29)" fill="#447337"/><path d="M1380.852,380.7H1370l5.426-21.7Z" transform="translate(-626.903 -164.205)" fill="#5a9c4b"/><g transform="translate(795.729 166.121)"><path d="M1588.1,308.2l24.417,59.035h34.673Z" transform="translate(-1522.39 -307.09)" fill="#6fbf5c"/><path d="M1525.547,307.753,1467,366.3h90.126l-24.471-59.035A5.4,5.4,0,0,0,1525.547,307.753Z" transform="translate(-1467 -306.155)" fill="#9bd96f"/></g><path d="M1598.852,370.7H1588l5.426-21.7Z" transform="translate(-726.615 -159.631)" fill="#447337"/><path d="M1600.494,370.184h-10.853l5.426-21.7Zm-33.642-12.48H1556l5.426-21.7Z" transform="translate(-711.979 -153.685)" fill="#5a9c4b"/><path d="M1591.412,375.456a8.714,8.714,0,0,0-6.132-2.55h-2.55a8.714,8.714,0,0,1-6.132-2.55l-12.805-12.805a8.714,8.714,0,0,0-6.131-2.55H1536.5a8.713,8.713,0,0,1,6.132,2.55l12.805,12.805a8.714,8.714,0,0,0,6.132,2.55h2.55a8.713,8.713,0,0,1,6.131,2.55l13.186,13.185H1604.6Z" transform="translate(-703.06 -162.375)" fill="#6fbf5c"/><path d="M1322.755,390.377c-1.085-5.643-6.023-9.279-11.991-9.279h-.6a16.38,16.38,0,0,0-13.077-7,16.175,16.175,0,0,0-13.24,6.62,10.2,10.2,0,0,0-8.085.271,12.279,12.279,0,0,0-16.821,3.635,8.173,8.173,0,0,0-1.954-.326c-3.689,0-6.728,2.333-6.891,6.023Z" transform="translate(-572.062 -171.111)" fill="#5a9c4b"/><circle cx="13.565" cy="13.565" r="13.565" transform="translate(897.196 212.701)" fill="#5a9c4b"/><circle cx="13.565" cy="13.565" r="13.565" transform="translate(917.815 218.127)" fill="#5a9c4b"/><circle cx="13.565" cy="13.565" r="13.565" transform="translate(879.29 217.042)" fill="#5a9c4b"/><path d="M1229.931,393.767a7.252,7.252,0,0,0,.326-2.17,7.619,7.619,0,0,0-7.6-7.6,7.51,7.51,0,0,0-4.992,1.9,12.2,12.2,0,0,0-16.5,3.8,8.175,8.175,0,0,0-1.954-.326,6.678,6.678,0,0,0-6.619,4.4Z" transform="translate(-545.761 -175.64)" fill="#5a9c4b"/><path d="M1184.931,396.767a7.251,7.251,0,0,0,.325-2.17,7.618,7.618,0,0,0-7.6-7.6,7.511,7.511,0,0,0-4.992,1.9,12.2,12.2,0,0,0-16.5,3.8,8.165,8.165,0,0,0-1.953-.326,6.679,6.679,0,0,0-6.62,4.4Z" transform="translate(-525.179 -177.012)" fill="#5a9c4b"/><circle cx="13.565" cy="13.565" r="13.565" transform="translate(805.496 186.656)" fill="#5a9c4b"/><path d="M1436.527,368.791l2.713-2.713a10.272,10.272,0,0,1,7.271-3.039h14.162a2.544,2.544,0,0,0,1.9-.814l7.326-7.325h-22.355a24.672,24.672,0,0,0-17.527,7.271,12.321,12.321,0,0,1-8.681,3.581,8.619,8.619,0,0,0-6.132,2.55l-.108.109c-.38.38-.814.76-1.194,1.085h20.728A2.176,2.176,0,0,0,1436.527,368.791Z" transform="translate(-646.983 -162.33)" fill="#9bd96f"/><path d="M1032.336,373.006a86.953,86.953,0,0,0-38.851,0l-54.749,12.7a104.693,104.693,0,0,1-34.944,2.008l-20.51-2.279-9.875-9.875a8.714,8.714,0,0,0-6.131-2.55h-2.55a8.713,8.713,0,0,1-6.131-2.55L845.789,357.65a8.714,8.714,0,0,0-6.131-2.55H826.906L816.38,365.627a10.273,10.273,0,0,1-7.271,3.039h-8.682a5.6,5.6,0,0,0-3.853,1.573l-4.07,4.07a10.272,10.272,0,0,1-7.271,3.039H756.422l2.713-2.713-37.494,3.636a181.794,181.794,0,0,1-42.757-.326,136.136,136.136,0,0,0-31.525-.109L540.9,390.424a171.077,171.077,0,0,1-39.773.054L341.655,372.029a181.667,181.667,0,0,0-42.052,0l-45.09,5.48c-6.783.814-13.728,1.357-20.565,1.628a230.129,230.129,0,0,1-31.8-.814c-13.782-1.3-54.912-6.294-54.912-6.294a181.667,181.667,0,0,0-42.052,0l-45.09,5.48c-6.783.814-13.728,1.357-20.565,1.628A254.479,254.479,0,0,1,13,378.758V499.378H1097.666V425.042h.543V388.307l-65.872-15.3Z" transform="translate(-6.217 -162.421)" fill="#9bd96f"/><path d="M1408.548,377.247h6.023a10.176,10.176,0,0,0,7.271-3.039l4.07-4.07a5.371,5.371,0,0,1,3.852-1.573h8.682a10.177,10.177,0,0,0,7.27-3.039L1456.243,355h-6.4l-7.325,7.325a2.765,2.765,0,0,1-1.9.814h-14.162a10.178,10.178,0,0,0-7.271,3.039l-2.713,2.713a2.765,2.765,0,0,1-1.9.814h-14.759a19.856,19.856,0,0,1-10.852,4.558c-.543.054-1.139.108-1.682.163l-1.465.163L1383.1,377.3h25.448Z" transform="translate(-632.895 -162.375)" fill="#e3ead3"/><g transform="translate(348.623 209.988)"><path d="M652,433.085h1.628L655.8,432H654.17Z" transform="translate(-647.117 -407.583)" fill="#6fbf5c"/><path d="M643,435.713,647.341,433h6.511Z" transform="translate(-643 -408.04)" fill="#6fbf5c"/><path d="M656,427.426V422h1.628v5.426Z" transform="translate(-648.946 -403.009)" fill="#b37624"/><path d="M657.628,422H656v2.17h1.628Z" transform="translate(-648.946 -403.009)" fill="#9c452d"/><path d="M652.868,401.6,652,406.534h5.969l-.814-4.938h.814l-2.5-12.209L655.039,387v.109L652,401.6Z" transform="translate(-647.117 -387)" fill="#5a9c4b"/></g><g transform="translate(252.582 194.035)"><path d="M479.5,428.628h2.442L485.2,427h-2.442Z" transform="translate(-472.175 -389.343)" fill="#6fbf5c"/><path d="M466,432.07l6.511-4.07h9.767Z" transform="translate(-466 -389.801)" fill="#6fbf5c"/><path d="M486,420.139V412h2.17v8.139Z" transform="translate(-475.148 -382.482)" fill="#b37624"/><path d="M488.17,412H486v3.255h2.17Z" transform="translate(-475.148 -382.482)" fill="#9c452d"/><path d="M480.6,380.064l-1.3,7.6h9.17l-1.194-7.6h1.194l-3.8-18.828-.651-3.636v.109L479.3,380.064Z" transform="translate(-472.083 -357.6)" fill="#5a9c4b"/></g><g transform="translate(66.198 180.47)"><path d="M136,403.628h2.442L141.7,402h-2.442Z" transform="translate(-128.675 -364.343)" fill="#6fbf5c"/><path d="M122.5,407.07,129.011,403h9.767Z" transform="translate(-122.5 -364.801)" fill="#6fbf5c"/><path d="M143,395.139V387h2.17v8.139Z" transform="translate(-131.877 -357.482)" fill="#b37624"/><path d="M145.17,387H143v3.256h2.17Z" transform="translate(-131.877 -357.482)" fill="#9c452d"/><path d="M137.6,355.064l-1.3,7.6h9.17l-1.194-7.6h1.194l-3.8-18.828-.651-3.635v.109L136.3,355.064Z" transform="translate(-128.812 -332.6)" fill="#5a9c4b"/></g><g transform="translate(134.295 186.981)"><path d="M261.5,415.628h2.442L267.2,414h-2.442Z" transform="translate(-254.175 -376.343)" fill="#6fbf5c"/><path d="M248,419.07,254.511,415h9.767Z" transform="translate(-248 -376.801)" fill="#6fbf5c"/><path d="M268,407.139V399h2.17v8.139Z" transform="translate(-257.148 -369.482)" fill="#b37624"/><path d="M270.17,399H268v3.256h2.17Z" transform="translate(-257.148 -369.482)" fill="#9c452d"/><path d="M262.6,367.064l-1.3,7.6h9.17l-1.194-7.6h1.194l-3.8-18.828-.651-3.635v.108L261.3,367.064Z" transform="translate(-254.083 -344.6)" fill="#5a9c4b"/></g><g transform="translate(644.071 182.261)"><path d="M1188.8,380.225l2.116-11.937h-1.3l6.349-31.688,6.945,31.688h-1.085l2.441,11.937h-2.333l2.333,11.937H1188.8l2.17-11.937Z" transform="translate(-1188.094 -336.22)" fill="#447337"/><path d="M1195.368,335.9l-4.178,32.068h-2.822Zm-5.589,32.068h3.039l-1.194,11.937h2.224l-2.224,11.937H1187.5l2.17-11.937h-2.17Z" transform="translate(-1187.5 -335.9)" fill="#5a9c4b"/></g><g transform="translate(1008.701 170.866)"><path d="M1860.8,359.225l2.116-11.937h-1.3l6.349-31.688,6.945,31.688h-1.085l2.441,11.937h-2.333l2.333,11.937H1860.8l2.17-11.937Z" transform="translate(-1860.094 -315.22)" fill="#447337"/><path d="M1867.368,314.9l-4.178,32.068h-2.822Zm-5.589,32.068h3.039l-1.194,11.937h2.225l-2.225,11.937H1859.5l2.17-11.937h-2.17Z" transform="translate(-1859.5 -314.9)" fill="#5a9c4b"/></g><g transform="translate(218.127 177.92)"><path d="M417.91,372.225l-2.116-11.937h1.356L410.8,328.6l-7,31.688h1.085L402.5,372.225h2.333L402.5,384.163h15.41l-2.17-11.937Z" transform="translate(-402.5 -328.22)" fill="#447337"/><path d="M417.8,327.9l4.178,32.068H424.8Zm5.589,32.068H420.3l1.248,11.937h-2.225l2.225,11.937h4.124l-2.225-11.937h2.225Z" transform="translate(-409.498 -327.9)" fill="#5a9c4b"/></g><g transform="translate(20.619 177.92)"><path d="M53.91,372.225l-2.116-11.937H53.15L46.8,328.6l-7,31.688h1.085L38.5,372.225h2.333L38.5,384.163H53.91l-2.17-11.937Z" transform="translate(-38.5 -328.22)" fill="#447337"/><path d="M53.8,327.9l4.178,32.068H60.8Zm5.589,32.068H56.3l1.248,11.937H55.319l2.225,11.937h4.124l-2.225-11.937h2.225Z" transform="translate(-45.498 -327.9)" fill="#5a9c4b"/></g><ellipse cx="2.17" cy="0.814" rx="2.17" ry="0.814" transform="translate(592.795 251.226)" fill="#9bd96f"/><ellipse cx="2.17" cy="0.814" rx="2.17" ry="0.814" transform="translate(567.293 238.746)" fill="#9bd96f"/><ellipse cx="1.085" cy="0.543" rx="1.085" ry="0.543" transform="translate(569.463 255.567)" fill="#6fbf5c"/><ellipse cx="1.085" cy="0.543" rx="1.085" ry="0.543" transform="translate(584.656 253.396)" fill="#6fbf5c"/><ellipse cx="1.085" cy="0.543" rx="1.085" ry="0.543" transform="translate(774.025 220.84)" fill="#6fbf5c"/><ellipse cx="1.085" cy="0.543" rx="1.085" ry="0.543" transform="translate(806.039 212.701)" fill="#6fbf5c"/><ellipse cx="1.085" cy="0.543" rx="1.085" ry="0.543" transform="translate(798.442 195.88)" fill="#6fbf5c"/><ellipse cx="1.085" cy="0.543" rx="1.085" ry="0.543" transform="translate(782.707 218.67)" fill="#6fbf5c"/><ellipse cx="1.085" cy="0.543" rx="1.085" ry="0.543" transform="translate(998.121 212.701)" fill="#6fbf5c"/><ellipse cx="1.085" cy="0.543" rx="1.085" ry="0.543" transform="translate(1040.986 218.67)" fill="#6fbf5c"/><ellipse cx="1.085" cy="0.543" rx="1.085" ry="0.543" transform="translate(889.6 227.894)" fill="#6fbf5c"/><ellipse cx="1.085" cy="0.543" rx="1.085" ry="0.543" transform="translate(802.783 219.755)" fill="#6fbf5c"/><ellipse cx="1.085" cy="0.543" rx="1.085" ry="0.543" transform="translate(819.604 207.817)" fill="#6fbf5c"/><ellipse cx="1.085" cy="0.543" rx="1.085" ry="0.543" transform="translate(842.393 208.36)" fill="#6fbf5c"/><ellipse cx="1.085" cy="0.543" rx="1.085" ry="0.543" transform="translate(543.961 275.1)" fill="#6fbf5c"/><ellipse cx="1.085" cy="0.543" rx="1.085" ry="0.543" transform="translate(502.18 270.76)" fill="#6fbf5c"/><ellipse cx="1.085" cy="0.543" rx="1.085" ry="0.543" transform="translate(462.57 250.141)" fill="#6fbf5c"/><ellipse cx="1.085" cy="0.543" rx="1.085" ry="0.543" transform="translate(378.466 222.468)" fill="#6fbf5c"/><ellipse cx="1.085" cy="0.543" rx="1.085" ry="0.543" transform="translate(247.699 221.383)" fill="#6fbf5c"/><ellipse cx="1.085" cy="0.543" rx="1.085" ry="0.543" transform="translate(237.932 224.638)" fill="#6fbf5c"/><ellipse cx="1.085" cy="0.543" rx="1.085" ry="0.543" transform="translate(211.887 219.755)" fill="#6fbf5c"/><ellipse cx="1.085" cy="0.543" rx="1.085" ry="0.543" transform="translate(171.734 222.468)" fill="#6fbf5c"/><ellipse cx="1.085" cy="0.543" rx="1.085" ry="0.543" transform="translate(135.922 212.158)" fill="#6fbf5c"/><ellipse cx="1.085" cy="0.543" rx="1.085" ry="0.543" transform="translate(52.361 221.383)" fill="#6fbf5c"/><ellipse cx="1.085" cy="0.543" rx="1.085" ry="0.543" transform="translate(380.094 233.862)" fill="#6fbf5c"/><ellipse cx="1.085" cy="0.543" rx="1.085" ry="0.543" transform="translate(400.713 224.638)" fill="#6fbf5c"/><ellipse cx="1.085" cy="0.543" rx="1.085" ry="0.543" transform="translate(484.817 278.356)" fill="#6fbf5c"/><ellipse cx="1.085" cy="0.543" rx="1.085" ry="0.543" transform="translate(532.023 236.575)" fill="#6fbf5c"/><ellipse cx="1.085" cy="0.543" rx="1.085" ry="0.543" transform="translate(560.782 247.97)" fill="#6fbf5c"/><ellipse cx="1.085" cy="0.543" rx="1.085" ry="0.543" transform="translate(452.803 242.544)" fill="#6fbf5c"/><ellipse cx="1.085" cy="0.543" rx="1.085" ry="0.543" transform="translate(509.234 237.118)" fill="#6fbf5c"/><ellipse cx="1.085" cy="0.543" rx="1.085" ry="0.543" transform="translate(422.417 237.661)" fill="#6fbf5c"/><ellipse cx="1.085" cy="0.543" rx="1.085" ry="0.543" transform="translate(619.383 233.32)" fill="#6fbf5c"/><ellipse cx="1.085" cy="0.543" rx="1.085" ry="0.543" transform="translate(441.409 232.777)" fill="#6fbf5c"/><ellipse cx="1.085" cy="0.543" rx="1.085" ry="0.543" transform="translate(476.135 230.064)" fill="#6fbf5c"/><ellipse cx="1.085" cy="0.543" rx="1.085" ry="0.543" transform="translate(347.538 214.871)" fill="#6fbf5c"/><ellipse cx="1.085" cy="0.543" rx="1.085" ry="0.543" transform="translate(300.874 210.53)" fill="#6fbf5c"/><ellipse cx="1.085" cy="0.543" rx="1.085" ry="0.543" transform="translate(629.15 223.01)" fill="#6fbf5c"/><ellipse cx="1.085" cy="0.543" rx="1.085" ry="0.543" transform="translate(709.998 219.755)" fill="#6fbf5c"/><ellipse cx="1.085" cy="0.543" rx="1.085" ry="0.543" transform="translate(528.768 263.706)" fill="#6fbf5c"/><ellipse cx="1.085" cy="0.543" rx="1.085" ry="0.543" transform="translate(579.773 231.149)" fill="#6fbf5c"/><ellipse cx="1.085" cy="0.543" rx="1.085" ry="0.543" transform="translate(609.616 225.181)" fill="#6fbf5c"/><path d="M838.577,432.472l39.665-10.309c.922,0,6.566-.163,7.488-.163l-27.4,8.41a2.126,2.126,0,0,0-1.411,2.225,2.19,2.19,0,0,0,1.791,1.953l55.237,9.116a1.934,1.934,0,0,1,.108,3.8L801.3,470.617v-17.2l62.237-7.705a2.174,2.174,0,0,0,.163-4.287l-25.014-5.046a2.016,2.016,0,0,1-.109-3.907Z" transform="translate(-366.782 -193.021)" fill="#e3ead3"/><ellipse cx="1.628" cy="0.814" rx="1.628" ry="0.814" transform="translate(787.59 230.607)" fill="#6fbf5c"/><g transform="translate(466.414 92.785)"><circle cx="21.704" cy="21.704" r="21.704" transform="translate(31.425)" fill="#ef9f3f"/><circle cx="17.906" cy="17.906" r="17.906" transform="translate(35.223 3.798)" fill="#fec585"/><path d="M72.748,68.332l-7.325-.488a7.252,7.252,0,0,0-6.186-3.581,8.559,8.559,0,0,0-2.279.326,12.5,12.5,0,0,0-6.4-6.4A12.031,12.031,0,0,0,45.509,57.1a12.657,12.657,0,0,0-9.061,3.852,7.711,7.711,0,0,0-1.357-1.3A8.133,8.133,0,0,0,22.5,63.557a9.667,9.667,0,0,0-5.535-1.682,9.916,9.916,0,0,0-9.116,5.969L.69,68.332a.6.6,0,1,0,.054,1.194h72A.6.6,0,1,0,72.748,68.332Z" transform="translate(-0.085 -26.117)" fill="#fff"/></g><path d="M349.975,46.368,361.7,45.5A14.943,14.943,0,0,1,376.02,34.81a14.681,14.681,0,0,1,11.286,5.209,8.946,8.946,0,0,1,10.364.163,19.5,19.5,0,0,1,36.951-.977,13.581,13.581,0,0,1,4.775-.868,10.739,10.739,0,0,1,10.092,7.217l9.658.76c2.333.109,2.279,2.062-.163,2.062H350.138C347.75,48.43,347.642,46.476,349.975,46.368ZM1156.99,78.924l-11.72-.868a14.943,14.943,0,0,0-14.325-10.689,14.681,14.681,0,0,0-11.286,5.209,8.946,8.946,0,0,0-10.364.163,19.5,19.5,0,0,0-36.952-.977,13.579,13.579,0,0,0-4.775-.868,10.739,10.739,0,0,0-10.092,7.217l-9.658.76c-2.333.109-2.279,2.062.163,2.062h108.9c2.333.054,2.442-1.9.109-2.008ZM530.88,111.86l9.007-.488a9.425,9.425,0,0,1,8.682-5.752,9.3,9.3,0,0,1,5.263,1.628,9.428,9.428,0,0,1,18.449-2.225,15.42,15.42,0,0,1,3.581-.38,15.7,15.7,0,0,1,12.914,6.783l8.248.434c1.3.054,1.248,1.357-.108,1.682H530.934C529.631,113.217,529.577,111.914,530.88,111.86Z" transform="translate(-159.575 -12.075)" fill="#fff"/><g transform="translate(777.878 62.454)"><path d="M1434.1,119.2a6.805,6.805,0,0,1,4.558,1.953,4.345,4.345,0,0,1,1.3,1.845H1437.9Z" transform="translate(-1434.1 -116.975)" fill="#230545"/><path d="M1439.615,123.4h5.481s-1.249,1.845-2.279,1.845a5.535,5.535,0,0,1,1.194,3.635l-3.581-3.635H1435.6A5.794,5.794,0,0,1,1439.615,123.4Zm18.069,8.573h4.883l-.976.977a1.266,1.266,0,0,1-1.3.326l.054.054a6,6,0,0,1,1.736,4.07l-3.581-3.635h-4.829A5.757,5.757,0,0,1,1457.684,131.973Z" transform="translate(-1434.786 -118.896)" fill="#230545"/><path d="M1475.3,129.742v.109l-3.8,3.853a6.5,6.5,0,0,1,1.41-3.907h2.387Zm4.232-9.224h4.884l-.977-.868a1.266,1.266,0,0,0-1.3-.326l.054-.054a6.005,6.005,0,0,0,1.736-4.07l-3.581,3.69h-4.829A5.4,5.4,0,0,0,1479.531,120.518Z" transform="translate(-1451.207 -115.146)" fill="#230545"/><path d="M1485.3,119.061v-.109l-3.8-3.853a6.5,6.5,0,0,0,1.411,3.907h2.388Z" transform="translate(-1455.78 -115.1)" fill="#230545"/></g><path d="M76.91,122.246l12.426-.814a15.2,15.2,0,0,1,25.231-3.418,9.195,9.195,0,0,1,10.038-.163,19.953,19.953,0,0,1,38.8-.868,16.843,16.843,0,0,1,.6,4.4l12.046.868a1.2,1.2,0,1,1-.109,2.387H76.964A1.194,1.194,0,1,1,76.91,122.246Zm578.8-3.907,10.147-.543a11.375,11.375,0,0,1,11.286-9.93,10.256,10.256,0,0,1,3.418.543,10.793,10.793,0,0,1,10.147-7.054,11.173,11.173,0,0,1,5.155,1.3A14.264,14.264,0,0,1,706.223,98.1a14.075,14.075,0,0,1,14.053,13.4,14.241,14.241,0,0,1,7.922-2.442,14.013,14.013,0,0,1,12.968,8.573l13.511.705c1.953.054,1.9,2.062-.054,2.5H655.869C653.861,120.4,653.7,118.393,655.706,118.339Z" transform="translate(-34.913 -44.871)" fill="#fff"/><g transform="translate(417.531 226.809)"><path d="M773,419.628,774.628,418h8.139l3.8,3.8h-4.341l-2.17-2.17Z" transform="translate(-771.369 -418)" fill="#e3ead3"/><path d="M773,421h7.054l2.17,2.17H773Z" transform="translate(-771.369 -419.372)" fill="#c4d7b6"/><path d="M770.811,426.628h10.255a4.312,4.312,0,0,0,2.279-.6L785.082,425H771.517l-1.3.814C769.726,426.085,770.106,426.628,770.811,426.628Z" transform="translate(-769.995 -421.202)" fill="#6fbf5c"/></g><g transform="translate(574.889 242.002)"><path d="M1073.565,447.628,1071.938,446h-8.14l-3.8,3.8h4.341l2.17-2.171Z" transform="translate(-1060 -446)" fill="#e3ead3"/><path d="M1077.224,449h-7.054l-2.17,2.17h9.224Z" transform="translate(-1063.659 -447.372)" fill="#c4d7b6"/><path d="M1074.471,454.628h-10.255a4.31,4.31,0,0,1-2.279-.6L1060.2,453h13.565l1.3.814C1075.556,454.085,1075.176,454.628,1074.471,454.628Z" transform="translate(-1060.091 -449.202)" fill="#6fbf5c"/></g><g transform="translate(798.674 144.984)"><path d="M1514.726,279.308a14.383,14.383,0,0,0-7.271-2.008c-.652,0-1.248.054-1.845.109a.574.574,0,0,0-.434.76.546.546,0,0,0,.6.326c.6-.054,1.139-.109,1.736-.109a13,13,0,0,1,6.674,1.845.534.534,0,0,0,.76-.163A.6.6,0,0,0,1514.726,279.308Z" transform="translate(-1487.393 -271.82)" fill="#fff"/><path d="M1490.019,312.651a13.123,13.123,0,0,1-6.457-6.783,12.992,12.992,0,0,1-.976-4.992,13.287,13.287,0,0,1,.759-4.341.6.6,0,0,0,0-.434.555.555,0,0,0-.326-.271.564.564,0,0,0-.7.326,13.948,13.948,0,0,0,.271,10.092,14.291,14.291,0,0,0,7,7.379.327.327,0,0,0,.218.054.52.52,0,0,0,.488-.326.588.588,0,0,0,0-.434.653.653,0,0,0-.271-.271Zm-6.294-18.394c.108.054.163.109.272.109a.568.568,0,0,0,.488-.271.549.549,0,1,0-.922-.6A.489.489,0,0,0,1483.725,294.256Zm25.937,9.55a.565.565,0,0,0-.706.326,13.069,13.069,0,0,1-6.077,7.108.5.5,0,0,0-.217.705.57.57,0,0,0,.489.271.49.49,0,0,0,.271-.054,14.347,14.347,0,0,0,6.565-7.705A.527.527,0,0,0,1509.661,303.806Zm-9.224,8.465a.589.589,0,0,0-.38.651.539.539,0,0,0,.542.38h.162c.109-.054.272-.108.326-.271a1.073,1.073,0,0,0,.053-.434.563.563,0,0,0-.7-.326Z" transform="translate(-1476.577 -279.118)" fill="#e3ead3"/><path d="M1486.262,332.189a19.261,19.261,0,0,1-6.4-5.589l-.759.76a20.845,20.845,0,0,0,6.674,5.806.407.407,0,0,0,.271.054.571.571,0,0,0,.489-.271A.8.8,0,0,0,1486.262,332.189Z" transform="translate(-1475.479 -294.369)" fill="#fff"/><path d="M1521.036,286.272a1.28,1.28,0,0,0,.434-.109.691.691,0,0,0,.38-.488.753.753,0,0,0-.109-.6.855.855,0,0,0-1.139-.271.842.842,0,0,0-.271,1.139A.967.967,0,0,0,1521.036,286.272ZM1498.3,314.324a.859.859,0,0,0-1.031.543.747.747,0,0,0,.054.6.692.692,0,0,0,.489.38c.054,0,.162.054.217.054a.754.754,0,0,0,.76-.6A.7.7,0,0,0,1498.3,314.324Z" transform="translate(-1483.774 -275.203)" fill="#e3ead3"/><path d="M1544.213,297.547a.515.515,0,0,0-.271.6,19.958,19.958,0,0,1,.325,3.581,19.5,19.5,0,0,1-1.3,7,.539.539,0,0,0,.271.705.521.521,0,0,0,.705-.326,20.211,20.211,0,0,0,1.357-7.38,17.711,17.711,0,0,0-.38-3.8C1544.973,297.547,1544.539,297.384,1544.213,297.547Z" transform="translate(-1504.672 -281.052)" fill="#fff"/><path d="M1498.259,269.208a.521.521,0,0,1-.488-.38.543.543,0,0,1,.325-.705,20.8,20.8,0,0,1,6.023-.922,20.015,20.015,0,0,1,5.915.868.554.554,0,0,1,.325.271.576.576,0,0,1,.055.434.54.54,0,0,1-.543.38h-.163a19.341,19.341,0,0,0-5.589-.814,18.275,18.275,0,0,0-5.643.868Z" transform="translate(-1484.004 -267.2)" fill="#e3ead3"/><path d="M1498.713,300,1496,329.843h18.448L1511.736,300Z" transform="translate(-1483.209 -282.203)" fill="#de5833"/><path d="M1528.426,300H1523l2.713,29.843h5.426Z" transform="translate(-1495.559 -282.203)" fill="#9c452d"/><path d="M1509.682,284,1501,292.682h11.938Z" transform="translate(-1485.496 -274.884)" fill="#544463"/><path d="M1511.969,284l8.682,8.682h-5.427ZM1506,313.843h5.969v8.682H1506Z" transform="translate(-1487.783 -274.884)" fill="#230545"/><path d="M1504,339h1.628v8.682H1504Z" transform="translate(-1486.868 -300.041)" fill="#544463"/><path d="M1506.8,306h3.8v1.628h-3.8Zm-3.8,10.309h3.8v1.628H1503Zm6.511-7.6h3.8v1.628h-3.8Zm-3.8,10.309h3.8v1.628h-3.8Z" transform="translate(-1486.411 -284.947)" fill="#9c452d"/><g transform="translate(0 1.755)"><g transform="translate(0 2.689)"><circle cx="2.17" cy="2.17" r="2.17" transform="translate(17.132 14.439)" fill="#230545"/><path d="M50.426.39l1.151,1.151L36.23,16.888l-1.151-1.151Z" transform="translate(-16.277 -0.39)" fill="#230545"/><path d="M55.094,2.517l3.837,3.836L46.654,18.631l-3.837-3.837Z" transform="translate(-19.816 -1.363)" fill="#fff"/><path d="M8.688,45.884,7.537,44.734,22.885,29.386l1.15,1.151Z" transform="translate(-3.679 -13.653)" fill="#230545"/><path d="M4.263,44.092.427,40.255,12.7,27.977l3.836,3.837Z" transform="translate(-0.427 -13.008)" fill="#fff"/></g><path d="M1524.133,320.293,1508.94,305.1l-1.14,1.139,3.038,3.093,12.155,12.1Z" transform="translate(-1488.606 -286.291)" fill="#230545"/><path d="M1506.39,316.712l3.837-3.836L1522.351,325l-3.837,3.836Z" transform="translate(-1487.961 -289.847)" fill="#fff"/><path d="M1478.78,278.662l1.151-1.151,15.347,15.347-1.151,1.151Z" transform="translate(-1475.333 -273.672)" fill="#230545"/><path d="M1480.94,274.272l3.836-3.837,12.278,12.278-3.837,3.837Z" transform="translate(-1476.321 -270.435)" fill="#fff"/></g></g><g transform="translate(449.378 194.035)"><path d="M844.538,432.543h-3.2l2.225-.543h-1.953l-2.442.543h-2.333a12.353,12.353,0,0,0-2.116.868l-5.914,3.256c-.217.109-.109.38.163.326l15.79-3.961C844.918,433.031,845.135,432.543,844.538,432.543Z" transform="translate(-828.687 -391.63)" fill="#6fbf5c"/><path d="M852,411v11.34a2.015,2.015,0,0,0,1.248.326c.543,0,.977-.163.923-.326V411Z" transform="translate(-839.35 -382.025)" fill="#b37624"/><path d="M854.171,410H852v2.713h2.17Z" transform="translate(-839.35 -381.568)" fill="#9c452d"/><path d="M855,420.3l1.628-.488V419H855Z" transform="translate(-840.723 -385.684)" fill="#b37624"/><path d="M846.8,380.064l4.4-22.464,3.744,22.464h-1.194l1.194,7.6H846.8l1.248-7.6Z" transform="translate(-836.972 -357.6)" fill="#5a9c4b"/><path d="M856.653,380.064,854.7,357.6l4.124,22.464H857.63l1.194,7.6h-2.17l-1.194-7.6Z" transform="translate(-840.585 -357.6)" fill="#6fbf5c"/></g><g transform="translate(154.744 177.757)"><path d="M301.538,402.543h-3.2l2.225-.543h-1.953l-2.442.543h-2.333a12.36,12.36,0,0,0-2.116.868l-5.914,3.256c-.217.109-.109.38.163.326l15.79-3.961C301.918,403.031,302.135,402.543,301.538,402.543Z" transform="translate(-285.687 -361.63)" fill="#6fbf5c"/><path d="M309,381v11.34a2.015,2.015,0,0,0,1.248.326c.543,0,.977-.163.922-.326V381Z" transform="translate(-296.35 -352.025)" fill="#b37624"/><path d="M311.17,380H309v2.713h2.17Z" transform="translate(-296.35 -351.568)" fill="#9c452d"/><path d="M312,390.3l1.628-.488V389H312Z" transform="translate(-297.723 -355.684)" fill="#b37624"/><path d="M303.8,350.064l4.4-22.464,3.744,22.464h-1.194l1.194,7.6H303.8l1.248-7.6Z" transform="translate(-293.972 -327.6)" fill="#5a9c4b"/><path d="M313.653,350.064,311.7,327.6l4.124,22.464H314.63l1.194,7.6h-2.17l-1.194-7.6Z" transform="translate(-297.585 -327.6)" fill="#6fbf5c"/></g><g transform="translate(592.09 200.547)"><path d="M1095.685,444.542h3.2l-2.225-.542h1.953l2.442.542h2.333a12.349,12.349,0,0,1,2.116.868l5.915,3.256c.217.109.108.38-.163.326l-15.79-3.961C1095.306,445.031,1095.143,444.542,1095.685,444.542Z" transform="translate(-1093.352 -403.63)" fill="#6fbf5c"/><path d="M1100.167,423v11.34a2.014,2.014,0,0,1-1.248.326c-.542,0-.977-.163-.923-.326V423Z" transform="translate(-1094.577 -394.025)" fill="#b37624"/><path d="M1098,422h2.17v2.713H1098Z" transform="translate(-1094.582 -393.568)" fill="#9c452d"/><path d="M1097.628,432.3l-1.628-.488V431h1.628Z" transform="translate(-1093.667 -397.684)" fill="#b37624"/><path d="M1100.285,392.064l-4.341-22.464-3.744,22.464h1.14l-1.14,7.6h8.085l-1.194-7.6Z" transform="translate(-1091.929 -369.6)" fill="#5a9c4b"/><path d="M1093.87,392.064l1.9-22.464-4.07,22.464h1.14l-1.14,7.6h2.17l1.14-7.6Z" transform="translate(-1091.7 -369.6)" fill="#6fbf5c"/></g><g transform="translate(541.845 209.879)"><path d="M1004.636,489H1015c.977.434,1.954.76,2.822,1.248l3.581,5.48c.271.109.109.543-.217.434l-16.875-6.4C1004.094,489.705,1003.823,489.108,1004.636,489Z" transform="translate(-1001.381 -433.546)" fill="#6fbf5c"/><path d="M1010.7,460v15.193a2.475,2.475,0,0,1-1.573.434c-.651,0-1.248-.217-1.139-.434V460Z" transform="translate(-1003.16 -420.281)" fill="#b37624"/><path d="M1008,458h2.713v3.8H1008Z" transform="translate(-1003.171 -419.367)" fill="#9c452d"/><path d="M1007.171,471.736l-2.171-.651V470h2.171Z" transform="translate(-1001.798 -424.855)" fill="#b37624"/><path d="M1010.76,417.294l-5.752-30.494L999.8,417.294h1.573L999.8,427.6h10.96l-1.628-10.31Z" transform="translate(-999.42 -386.8)" fill="#5a9c4b"/><path d="M1002.084,417.294l2.6-30.494L999.1,417.294h1.628L999.1,427.6h2.984l1.573-10.31Z" transform="translate(-999.1 -386.8)" fill="#6fbf5c"/></g><path d="M877.991,396.668l-1.953-7.868-1.954,7.868a.777.777,0,0,0,.706.922h2.5A.753.753,0,0,0,877.991,396.668Zm42.323,5.426-1.953-7.868-1.954,7.868a.777.777,0,0,0,.706.922h2.5A.754.754,0,0,0,920.314,402.094Z" transform="translate(-400.065 -177.835)" fill="#9bd96f"/><path d="M607.991,363.668l-1.953-7.868-1.953,7.868a.777.777,0,0,0,.706.922h2.5A.754.754,0,0,0,607.991,363.668Z" transform="translate(-276.568 -162.741)" fill="#6fbf5c"/><path d="M101.5,354.21l-1.953-7.868-1.953,7.868a.777.777,0,0,0,.705.922h2.5A.754.754,0,0,0,101.5,354.21Zm119.373,6.511-1.953-7.868-1.953,7.868a.777.777,0,0,0,.705.922h2.5a.754.754,0,0,0,.705-.922Zm39.61,3.256-1.953-7.868-1.953,7.868a.777.777,0,0,0,.705.922h2.5a.754.754,0,0,0,.705-.922Zm22.789-10.31-1.953-7.868-1.953,7.868a.777.777,0,0,0,.705.922h2.5A.754.754,0,0,0,283.271,353.668ZM64.058,359.094l-1.953-7.868-1.953,7.868a.777.777,0,0,0,.705.922h2.5a.753.753,0,0,0,.705-.922Zm-39.068,7.054-1.953-7.868-1.953,7.868a.777.777,0,0,0,.705.922h2.5a.754.754,0,0,0,.705-.922Z" transform="translate(-9.907 -158.167)" fill="#9bd96f"/><path d="M774.991,381.668l-1.954-7.868-1.953,7.868a.777.777,0,0,0,.706.922h2.5A.754.754,0,0,0,774.991,381.668Z" transform="translate(-352.953 -170.975)" fill="#6fbf5c"/><path d="M925.491,391.513l-1.954-7.813-1.953,7.813a.86.86,0,0,0,.814,1.031h2.333A.781.781,0,0,0,925.491,391.513Z" transform="translate(-421.792 -175.503)" fill="#5a9c4b"/><path d="M559.5,355.857l-1.953-7.813-1.953,7.813a.859.859,0,0,0,.814,1.031h2.333a.781.781,0,0,0,.76-1.031ZM261.613,329.27l-1.953-7.813-1.953,7.813a.859.859,0,0,0,.814,1.031h2.333A.781.781,0,0,0,261.613,329.27Zm-42.866.543L216.794,322l-1.953,7.814a.859.859,0,0,0,.814,1.031h2.333a.781.781,0,0,0,.76-1.031Zm-59.2-2.442-2.387-9.6-2.387,9.6a1,1,0,0,0,.977,1.248h2.876a1.012,1.012,0,0,0,.922-1.248ZM45.6,310.6,43.161,301l-2.387,9.6a1,1,0,0,0,.977,1.248h2.876A1,1,0,0,0,45.6,310.6Zm461.756,38.525-2.388-9.6-2.387,9.6a1,1,0,0,0,.977,1.248h2.876a.991.991,0,0,0,.922-1.248Zm152.472-4.883-2.387-9.6-2.388,9.6a1,1,0,0,0,.977,1.248h2.876A.991.991,0,0,0,659.831,344.246Zm-516.5-20.4-1.953-7.814-1.953,7.814a.859.859,0,0,0,.814,1.031h2.333A.781.781,0,0,0,143.326,323.844Zm-37.982-7.6-1.953-7.814-1.953,7.814a.859.859,0,0,0,.814,1.031h2.333a.781.781,0,0,0,.76-1.031Zm-43.951.543-1.953-7.814-1.953,7.814a.859.859,0,0,0,.814,1.031h2.333A.781.781,0,0,0,61.392,316.79Zm256.652,13.565-1.953-7.813-1.953,7.813a.859.859,0,0,0,.814,1.031h2.333A.781.781,0,0,0,318.044,330.355Zm270.217,27.673-1.953-7.813-1.953,7.813a.859.859,0,0,0,.814,1.031H587.5a.781.781,0,0,0,.76-1.031Z" transform="translate(-18.906 -137.676)" fill="#6fbf5c"/><path d="M502.4,368.559l-1.953-7.814-1.953,7.814a.859.859,0,0,0,.814,1.031h2.333A.781.781,0,0,0,502.4,368.559Zm-47.207-4.883-1.953-7.814-1.953,7.814a.859.859,0,0,0,.814,1.031h2.333A.781.781,0,0,0,455.193,363.675ZM310.86,342.513l-1.953-7.813-1.953,7.813a.859.859,0,0,0,.814,1.031H310.1A.781.781,0,0,0,310.86,342.513Zm90.072,7.6-1.953-7.814-1.953,7.814a.859.859,0,0,0,.814,1.031h2.333a.781.781,0,0,0,.76-1.031Zm-279.441-5.426-1.953-7.814-1.953,7.814a.859.859,0,0,0,.814,1.031h2.333A.781.781,0,0,0,121.491,344.684Z" transform="translate(-54.045 -153.09)" fill="#5a9c4b"/><path d="M75.491,355.513,73.538,347.7l-1.953,7.813a.859.859,0,0,0,.814,1.031h2.333A.781.781,0,0,0,75.491,355.513Z" transform="translate(-33.005 -159.036)" fill="#9bd96f"/><path d="M25.491,311.513,23.538,303.7l-1.953,7.813a.859.859,0,0,0,.814,1.031h2.333A.781.781,0,0,0,25.491,311.513Z" transform="translate(-10.135 -138.911)" fill="#6fbf5c"/><path d="M35.491,338.513,33.538,330.7l-1.953,7.813a.859.859,0,0,0,.814,1.031h2.333A.781.781,0,0,0,35.491,338.513Zm110.691,11.395-1.953-7.813-1.953,7.813a.859.859,0,0,0,.814,1.031h2.333a.781.781,0,0,0,.76-1.031ZM637.239,360.76l-1.953-7.813-1.953,7.813a.859.859,0,0,0,.814,1.031h2.333a.781.781,0,0,0,.76-1.031Zm-43.951,10.852-1.953-7.814-1.953,7.814a.859.859,0,0,0,.814,1.031h2.333A.781.781,0,0,0,593.288,371.612ZM940.012,347.2l-1.953-7.813-1.953,7.813a.859.859,0,0,0,.814,1.031h2.333a.781.781,0,0,0,.76-1.031Zm-12.48,10.31-1.953-7.814-1.953,7.814a.859.859,0,0,0,.814,1.031h2.333a.781.781,0,0,0,.76-1.031Z" transform="translate(-14.709 -151.261)" fill="#5a9c4b"/><path d="M1819.491,354.513l-1.954-7.813-1.954,7.813a.86.86,0,0,0,.814,1.031h2.333A.781.781,0,0,0,1819.491,354.513Z" transform="translate(-830.703 -158.579)" fill="#6fbf5c"/><path d="M1986.491,348.514l-1.953-7.814-1.954,7.814a.86.86,0,0,0,.814,1.031h2.333A.781.781,0,0,0,1986.491,348.514Z" transform="translate(-907.088 -155.835)" fill="#5a9c4b"/><path d="M1716.491,375.513l-1.954-7.813-1.954,7.813a.86.86,0,0,0,.814,1.031h2.333A.781.781,0,0,0,1716.491,375.513Zm131.31,3.256-1.954-7.813-1.953,7.813a.86.86,0,0,0,.814,1.031h2.333A.781.781,0,0,0,1847.8,378.769Z" transform="translate(-783.591 -168.184)" fill="#9bd96f"/><g transform="translate(306.843 190.454)"><path d="M575,397.085h1.628L578.8,396H577.17Z" transform="translate(-570.117 -371.583)" fill="#6fbf5c"/><path d="M566,399.713,570.34,397h6.511Z" transform="translate(-566 -372.04)" fill="#6fbf5c"/><path d="M579,391.426V386h1.628v5.426Z" transform="translate(-571.946 -367.009)" fill="#b37624"/><path d="M580.628,386H579v2.17h1.628Z" transform="translate(-571.946 -367.009)" fill="#9c452d"/><path d="M575.868,365.6,575,370.534h5.969l-.814-4.938h.814l-2.5-12.209L578.039,351v.108L575,365.6Z" transform="translate(-570.117 -351)" fill="#5a9c4b"/></g><g transform="translate(686.612 189.64)"><path d="M1275.929,409.628h-2.062L1271.1,408h2.062Z" transform="translate(-1268.278 -376.258)" fill="#6fbf5c"/><path d="M1279.836,413.473,1274.3,410H1266Z" transform="translate(-1265.946 -377.172)" fill="#6fbf5c"/><path d="M1273.171,402.054V395H1271v7.054Z" transform="translate(-1268.232 -370.311)" fill="#b37624"/><path d="M1271,396h2.171v2.713H1271Z" transform="translate(-1268.232 -370.769)" fill="#9c452d"/><path d="M1272.682,368.762l1.14,6.511H1265.9l1.085-6.511H1265.9l3.309-16.169.543-3.093v.109l4.07,19.154Z" transform="translate(-1265.9 -349.5)" fill="#6fbf5c"/></g><g transform="translate(828.665 189.043)"><path d="M1535.8,394.085h-1.628L1532,393h1.627Z" transform="translate(-1529.667 -368.8)" fill="#6fbf5c"/><path d="M1538.852,396.713,1534.511,394H1528Z" transform="translate(-1527.837 -369.257)" fill="#6fbf5c"/><path d="M1533.627,388.426V383H1532v5.426Z" transform="translate(-1529.667 -364.226)" fill="#b37624"/><path d="M1532,383h1.627v2.17H1532Z" transform="translate(-1529.667 -364.226)" fill="#9c452d"/><path d="M1532.746,362.833l.868,4.883H1527.7l.813-4.883h-.813l2.442-12.1.434-2.333v.054l3.038,14.379Z" transform="translate(-1527.7 -348.4)" fill="#5a9c4b"/></g><path d="M1598.954,413.434h20.619V407.52l-5.263-.6a16.406,16.406,0,0,1-9.713-4.666l-1.356-1.357H1598.9v12.534Z" transform="translate(-731.601 -183.37)" fill="#9bd96f"/><g transform="translate(418.41 243.087)"><path d="M782.224,452.341h7.6l2.713,2.713h8.682L794.162,448h-7.6l-2.713,2.713h-6.511L773,455.054h6.511Z" transform="translate(-772.248 -448)" fill="#e3ead3"/><path d="M786.713,456,784,458.713h14.108L795.395,456Z" transform="translate(-777.279 -451.659)" fill="#c4d7b6"/><path d="M802.054,449.628l5.426,5.426h3.8L804.224,448h-7.6L795,449.628Z" transform="translate(-782.311 -448)" fill="#fff" opacity="0.8"/><path d="M800.8,461l-6.511,4.721a3.623,3.623,0,0,1-2.225.705h-8.139a1.228,1.228,0,0,1-1.248-1.248,1.459,1.459,0,0,0-1.465-1.465h-8.139a1.446,1.446,0,0,1-.706-2.713Z" transform="translate(-771.614 -453.946)" fill="#6fbf5c"/></g><g transform="translate(556.278 211.29)"><path d="M1033.8,435.085h-1.628L1030,434h1.628Z" transform="translate(-1027.667 -409.8)" fill="#6fbf5c"/><path d="M1036.852,437.713,1032.511,435H1026Z" transform="translate(-1025.837 -410.257)" fill="#6fbf5c"/><path d="M1031.628,429.426V424H1030v5.426Z" transform="translate(-1027.667 -405.226)" fill="#b37624"/><path d="M1030,424h1.628v2.17H1030Z" transform="translate(-1027.667 -405.226)" fill="#9c452d"/><path d="M1030.746,403.833l.868,4.883H1025.7l.813-4.883h-.813l2.441-12.1.434-2.333v.054l3.039,14.379Z" transform="translate(-1025.7 -389.4)" fill="#5a9c4b"/></g><g transform="translate(669.682 201.523)"><path d="M1242.8,417.085h-1.628L1239,416h1.627Z" transform="translate(-1236.667 -391.8)" fill="#6fbf5c"/><path d="M1245.852,419.713,1241.511,417H1235Z" transform="translate(-1234.837 -392.257)" fill="#6fbf5c"/><path d="M1240.628,411.426V406H1239v5.426Z" transform="translate(-1236.667 -387.226)" fill="#b37624"/><path d="M1239,406h1.627v2.17H1239Z" transform="translate(-1236.667 -387.226)" fill="#9c452d"/><path d="M1239.746,385.833l.868,4.883H1234.7l.813-4.883h-.813l2.442-12.1.434-2.333v.054l3.039,14.379Z" transform="translate(-1234.7 -371.4)" fill="#6fbf5c"/></g><g transform="translate(870.988 203.694)"><path d="M1613.8,421.085h-1.628L1610,420h1.628Z" transform="translate(-1607.667 -395.8)" fill="#6fbf5c"/><path d="M1616.852,423.713,1612.511,421H1606Z" transform="translate(-1605.837 -396.257)" fill="#6fbf5c"/><path d="M1611.628,415.426V410H1610v5.426Z" transform="translate(-1607.667 -391.226)" fill="#b37624"/><path d="M1610,410h1.628v2.17H1610Z" transform="translate(-1607.667 -391.226)" fill="#9c452d"/><path d="M1610.746,389.833l.868,4.883H1605.7l.813-4.883h-.813l2.441-12.1.434-2.333v.054l3.039,14.379Z" transform="translate(-1605.7 -375.4)" fill="#5a9c4b"/></g><g transform="translate(241.567 95.498)"><path d="M455.684,178.387a2,2,0,0,0,1.9-.488l2.876-1.9H452.32c-2.17,0-5.046,1.519-6.62,2.713h7.271l5.372,5.86a9.116,9.116,0,0,0-2.659-6.186Z" transform="translate(-445.7 -176)" fill="#230545"/><path d="M456.2,181v.109l-5.7,5.752a10.247,10.247,0,0,1,2.062-5.86Z" transform="translate(-447.896 -178.287)" fill="#230545"/></g><path d="M505.683,147.2a1.906,1.906,0,0,0-1.9-.488l.054-.054a8.967,8.967,0,0,0,2.6-6.131l-4.829,4.992L496.35,140.2a9.177,9.177,0,0,0,.38,2.442,7.95,7.95,0,0,0,2.062,3.418H493.8a9.4,9.4,0,0,0,6.023,2.713h7.325l-1.465-1.573Z" transform="translate(-226.133 -64.127)" fill="#230545"/></g></g></g></g></svg>