<svg xmlns="http://www.w3.org/2000/svg" xmlns:xlink="http://www.w3.org/1999/xlink" width="1073" height="366" viewBox="0 0 1073 366"><defs><clipPath id="a"><rect width="1073" height="366" transform="translate(61 942)" fill="#fff"/></clipPath></defs><g transform="translate(-61 -942)" clip-path="url(#a)"><g transform="translate(47.961 947.81)"><g transform="translate(0 0)"><g transform="translate(0 0)"><path d="M1096.883,545.524a9.391,9.391,0,0,1,6.782,2.822,22.622,22.622,0,0,1,9.984-2.279c4.666,0,37.168,1.411,40.8,3.8a9.517,9.517,0,0,1,8.031-4.341,9.88,9.88,0,0,1,5.48,1.682,23.348,23.348,0,0,1,45.416,7.054h-126.1A9.661,9.661,0,0,1,1096.883,545.524ZM461.059,500l7.759,31.146L453.3,525.719Z" transform="translate(-207.609 -228.698)" fill="#447337"/><path d="M1380.852,380.7H1370l5.426-21.7Z" transform="translate(-626.903 -164.205)" fill="#5a9c4b"/><g transform="translate(492.956 274.558)"><path d="M971.4,528.247v-6.077l-8.41-8.03H952.083L943.943,506H932.332l-6.511,6.511h-6.511L909,522.6v5.643Z" transform="translate(-909 -506)" fill="#fff"/><path d="M971.4,534.247V528.17l-8.41-8.031H952.083L943.943,512H932.332l-6.511,6.511h-6.511L909,528.6v5.643Z" transform="translate(-909 -508.744)" fill="#e3ead3"/><path d="M970.926,535.906v-3.473l-5.752-5.752H954.539L945.911,518H940v8.139h-7.814l-9.984,9.767Z" transform="translate(-915.037 -511.489)" fill="#c4d7b6"/></g><circle cx="27.13" cy="27.13" r="27.13" transform="translate(934.093 213.243)" fill="#447337"/><circle cx="27.13" cy="27.13" r="27.13" transform="translate(903.165 229.522)" fill="#5a9c4b"/><circle cx="18.991" cy="18.991" r="18.991" transform="translate(778.366 223.553)" fill="#5a9c4b"/><circle cx="18.991" cy="18.991" r="18.991" transform="translate(707.827 221.383)" fill="#5a9c4b"/><circle cx="18.991" cy="18.991" r="18.991" transform="translate(687.208 226.266)" fill="#5a9c4b"/><circle cx="27.13" cy="27.13" r="27.13" transform="translate(797.357 219.755)" fill="#5a9c4b"/><circle cx="27.13" cy="27.13" r="27.13" transform="translate(100.11 216.499)" fill="#5a9c4b"/><circle cx="27.13" cy="27.13" r="27.13" transform="translate(63.756 219.755)" fill="#447337"/><circle cx="27.13" cy="27.13" r="27.13" transform="translate(81.662 212.701)" fill="#447337"/><circle cx="27.13" cy="27.13" r="27.13" transform="translate(176.075 223.553)" fill="#447337"/><circle cx="27.13" cy="27.13" r="27.13" transform="translate(963.394 218.127)" fill="#447337"/><circle cx="27.13" cy="27.13" r="27.13" transform="translate(1029.592 224.638)" fill="#5a9c4b"/><path d="M1963,428.13a27.14,27.14,0,0,0,27.13,27.13V401A27.14,27.14,0,0,0,1963,428.13Z" transform="translate(-898.139 -183.416)" fill="#447337"/><path d="M1098.254,427.5l-65.872-15.356a86.954,86.954,0,0,0-38.851,0l-54.749,12.7a104.691,104.691,0,0,1-34.944,2.008l-118.668-13.24a136.464,136.464,0,0,0-30.494,0l-32.99,3.8a181.784,181.784,0,0,1-42.757-.325.687.687,0,0,1-.326-.054,78.969,78.969,0,0,0-49.214,10.581L556.138,470.96a72.268,72.268,0,0,1-37.6,10.2h-1.248a73.613,73.613,0,0,1-27.456-5.969l-135.814-58.71a78.8,78.8,0,0,0-30.115-6.511,176.8,176.8,0,0,0-24.2,1.194l-45.09,5.48c-6.783.814-13.728,1.356-20.565,1.628a230.129,230.129,0,0,1-31.8-.814c-13.782-1.3-54.912-6.294-54.912-6.294a181.667,181.667,0,0,0-42.052,0l-45.09,5.48c-6.783.814-13.728,1.356-20.565,1.628a254.462,254.462,0,0,1-26.533-.38V538.569H1098.309V427.5h-.054Z" transform="translate(-6.263 -187.504)" fill="#6fbf5c"/><path d="M270.127,441.516c-.054-.109-.108-.163-.217-.109a2.685,2.685,0,0,0-.705.217,9.327,9.327,0,0,0-4.558,3.31c-.163.217-.543.054-.434-.217a10.725,10.725,0,0,1,4.666-6.24c.109-.054.109-.163.054-.271s-.163-.109-.271-.109c-.326.109-.543.271-.814.38a10.98,10.98,0,0,0-5.86,10.418H264.7a8.679,8.679,0,0,1,5.318-7.108C270.127,441.733,270.127,441.624,270.127,441.516Zm168.75-15.356c0-.054-.109-.109-.163-.109a1.586,1.586,0,0,1-.488.109,5.864,5.864,0,0,0-3.039,2.17.184.184,0,0,1-.326-.163,7.042,7.042,0,0,1,3.093-4.07.2.2,0,0,0,.054-.163c-.054-.054-.109-.108-.163-.054a3.731,3.731,0,0,1-.543.217,7.151,7.151,0,0,0-3.907,6.783h1.791a5.736,5.736,0,0,1,3.527-4.666C438.877,426.323,438.877,426.268,438.877,426.16Z" transform="translate(-120.097 -193.871)" fill="#9bd96f"/><ellipse cx="2.713" cy="1.085" rx="2.713" ry="1.085" transform="translate(256.381 260.45)" fill="#5a9c4b"/><ellipse cx="2.713" cy="1.085" rx="2.713" ry="1.085" transform="translate(24.688 253.939)" fill="#5a9c4b"/><ellipse cx="2.713" cy="1.085" rx="2.713" ry="1.085" transform="translate(135.38 291.379)" fill="#5a9c4b"/><ellipse cx="2.713" cy="1.085" rx="2.713" ry="1.085" transform="translate(144.061 279.441)" fill="#9bd96f"/><ellipse cx="2.713" cy="1.085" rx="2.713" ry="1.085" transform="translate(200.492 256.109)" fill="#9bd96f"/><ellipse cx="2.713" cy="1.085" rx="2.713" ry="1.085" transform="translate(335.058 251.768)" fill="#9bd96f"/><ellipse cx="2.713" cy="1.085" rx="2.713" ry="1.085" transform="translate(65.926 259.907)" fill="#9bd96f"/><ellipse cx="2.17" cy="0.814" rx="2.17" ry="0.814" transform="translate(723.02 251.226)" fill="#9bd96f"/><ellipse cx="2.17" cy="0.814" rx="2.17" ry="0.814" transform="translate(572.176 288.123)" fill="#9bd96f"/><ellipse cx="2.17" cy="0.814" rx="2.17" ry="0.814" transform="translate(785.962 257.194)" fill="#9bd96f"/><ellipse cx="2.17" cy="0.814" rx="2.17" ry="0.814" transform="translate(657.365 274.015)" fill="#9bd96f"/><ellipse cx="2.17" cy="0.814" rx="2.17" ry="0.814" transform="translate(931.38 253.939)" fill="#9bd96f"/><ellipse cx="2.17" cy="0.814" rx="2.17" ry="0.814" transform="translate(903.708 283.782)" fill="#9bd96f"/><ellipse cx="2.17" cy="0.814" rx="2.17" ry="0.814" transform="translate(829.913 237.118)" fill="#9bd96f"/><ellipse cx="2.17" cy="0.814" rx="2.17" ry="0.814" transform="translate(997.035 268.589)" fill="#9bd96f"/><ellipse cx="2.17" cy="0.814" rx="2.17" ry="0.814" transform="translate(873.322 262.078)" fill="#9bd96f"/><ellipse cx="2.17" cy="0.814" rx="2.17" ry="0.814" transform="translate(1045.87 290.293)" fill="#9bd96f"/><ellipse cx="1.628" cy="0.814" rx="1.628" ry="0.814" transform="translate(598.221 263.706)" fill="#9bd96f"/><ellipse cx="1.628" cy="0.814" rx="1.628" ry="0.814" transform="translate(336.143 275.643)" fill="#9bd96f"/><ellipse cx="1.628" cy="0.814" rx="1.628" ry="0.814" transform="translate(171.192 257.194)" fill="#9bd96f"/><ellipse cx="1.628" cy="0.814" rx="1.628" ry="0.814" transform="translate(60.5 281.612)" fill="#9bd96f"/><ellipse cx="1.085" cy="0.543" rx="1.085" ry="0.543" transform="translate(623.724 265.876)" fill="#5a9c4b"/><ellipse cx="1.085" cy="0.543" rx="1.085" ry="0.543" transform="translate(677.441 277.813)" fill="#5a9c4b"/><ellipse cx="1.085" cy="0.543" rx="1.085" ry="0.543" transform="translate(261.264 239.831)" fill="#5a9c4b"/><ellipse cx="1.085" cy="0.543" rx="1.085" ry="0.543" transform="translate(179.873 288.665)" fill="#5a9c4b"/><ellipse cx="1.085" cy="0.543" rx="1.085" ry="0.543" transform="translate(145.147 269.132)" fill="#5a9c4b"/><ellipse cx="1.085" cy="0.543" rx="1.085" ry="0.543" transform="translate(25.774 238.746)" fill="#5a9c4b"/><ellipse cx="1.085" cy="0.543" rx="1.085" ry="0.543" transform="translate(83.29 253.939)" fill="#5a9c4b"/><ellipse cx="1.085" cy="0.543" rx="1.085" ry="0.543" transform="translate(215.143 241.459)" fill="#5a9c4b"/><ellipse cx="1.085" cy="0.543" rx="1.085" ry="0.543" transform="translate(220.026 253.396)" fill="#5a9c4b"/><ellipse cx="1.085" cy="0.543" rx="1.085" ry="0.543" transform="translate(350.251 240.374)" fill="#5a9c4b"/><ellipse cx="1.085" cy="0.543" rx="1.085" ry="0.543" transform="translate(50.191 239.831)" fill="#5a9c4b"/><ellipse cx="1.085" cy="0.543" rx="1.085" ry="0.543" transform="translate(119.644 245.257)" fill="#5a9c4b"/><ellipse cx="1.085" cy="0.543" rx="1.085" ry="0.543" transform="translate(52.904 290.836)" fill="#5a9c4b"/><ellipse cx="1.085" cy="0.543" rx="1.085" ry="0.543" transform="translate(27.944 266.419)" fill="#5a9c4b"/><ellipse cx="1.085" cy="0.543" rx="1.085" ry="0.543" transform="translate(18.177 277.813)" fill="#5a9c4b"/><ellipse cx="1.085" cy="0.543" rx="1.085" ry="0.543" transform="translate(322.578 258.822)" fill="#5a9c4b"/><ellipse cx="1.085" cy="0.543" rx="1.085" ry="0.543" transform="translate(13.836 245.257)" fill="#5a9c4b"/><ellipse cx="1.085" cy="0.543" rx="1.085" ry="0.543" transform="translate(713.253 239.831)" fill="#9bd96f"/><ellipse cx="1.085" cy="0.543" rx="1.085" ry="0.543" transform="translate(775.653 233.862)" fill="#9bd96f"/><ellipse cx="1.085" cy="0.543" rx="1.085" ry="0.543" transform="translate(648.141 243.629)" fill="#9bd96f"/><ellipse cx="1.085" cy="0.543" rx="1.085" ry="0.543" transform="translate(242.273 247.97)" fill="#9bd96f"/><ellipse cx="1.085" cy="0.543" rx="1.085" ry="0.543" transform="translate(118.559 231.149)" fill="#9bd96f"/><ellipse cx="1.085" cy="0.543" rx="1.085" ry="0.543" transform="translate(40.967 257.194)" fill="#9bd96f"/><ellipse cx="1.085" cy="0.543" rx="1.085" ry="0.543" transform="translate(70.81 238.203)" fill="#9bd96f"/><ellipse cx="1.085" cy="0.543" rx="1.085" ry="0.543" transform="translate(101.738 246.342)" fill="#9bd96f"/><ellipse cx="1.085" cy="0.543" rx="1.085" ry="0.543" transform="translate(164.68 237.661)" fill="#9bd96f"/><ellipse cx="1.085" cy="0.543" rx="1.085" ry="0.543" transform="translate(86.545 230.064)" fill="#9bd96f"/><ellipse cx="1.085" cy="0.543" rx="1.085" ry="0.543" transform="translate(229.25 240.374)" fill="#9bd96f"/><ellipse cx="1.085" cy="0.543" rx="1.085" ry="0.543" transform="translate(156.541 260.993)" fill="#9bd96f"/><ellipse cx="1.085" cy="0.543" rx="1.085" ry="0.543" transform="translate(288.937 265.333)" fill="#9bd96f"/><ellipse cx="1.085" cy="0.543" rx="1.085" ry="0.543" transform="translate(187.47 234.405)" fill="#5a9c4b"/><ellipse cx="1.085" cy="0.543" rx="1.085" ry="0.543" transform="translate(277.542 274.015)" fill="#5a9c4b"/><ellipse cx="1.085" cy="0.543" rx="1.085" ry="0.543" transform="translate(249.869 236.033)" fill="#9bd96f"/><ellipse cx="1.085" cy="0.543" rx="1.085" ry="0.543" transform="translate(314.982 251.768)" fill="#9bd96f"/><ellipse cx="1.085" cy="0.543" rx="1.085" ry="0.543" transform="translate(305.758 229.522)" fill="#9bd96f"/><ellipse cx="1.628" cy="0.814" rx="1.628" ry="0.814" transform="translate(699.146 251.226)" fill="#5a9c4b"/><ellipse cx="1.628" cy="0.814" rx="1.628" ry="0.814" transform="translate(592.253 285.952)" fill="#5a9c4b"/><ellipse cx="1.628" cy="0.814" rx="1.628" ry="0.814" transform="translate(765.343 244.172)" fill="#5a9c4b"/><ellipse cx="1.628" cy="0.814" rx="1.628" ry="0.814" transform="translate(808.752 234.948)" fill="#5a9c4b"/><ellipse cx="1.628" cy="0.814" rx="1.628" ry="0.814" transform="translate(754.491 277.271)" fill="#5a9c4b"/><ellipse cx="1.628" cy="0.814" rx="1.628" ry="0.814" transform="translate(657.365 251.226)" fill="#5a9c4b"/><ellipse cx="1.628" cy="0.814" rx="1.628" ry="0.814" transform="translate(829.913 247.97)" fill="#5a9c4b"/><ellipse cx="1.628" cy="0.814" rx="1.628" ry="0.814" transform="translate(935.721 270.217)" fill="#5a9c4b"/><ellipse cx="1.628" cy="0.814" rx="1.628" ry="0.814" transform="translate(841.851 267.504)" fill="#5a9c4b"/><ellipse cx="1.628" cy="0.814" rx="1.628" ry="0.814" transform="translate(1018.197 285.41)" fill="#5a9c4b"/><circle cx="18.991" cy="18.991" r="18.991" transform="translate(444.664 296.262)" fill="#5a9c4b"/><circle cx="18.991" cy="18.991" r="18.991" transform="translate(418.077 290.293)" fill="#5a9c4b"/><ellipse cx="1.628" cy="0.814" rx="1.628" ry="0.814" transform="translate(995.95 233.862)" fill="#5a9c4b"/><ellipse cx="1.628" cy="0.814" rx="1.628" ry="0.814" transform="translate(942.775 293.006)" fill="#5a9c4b"/><path d="M914.5,568.3c-12.263,0-23.061,6.131-28.7,16.658h57.462C937.51,574.431,926.766,568.3,914.5,568.3Z" transform="translate(-405.432 -259.938)" fill="#5a9c4b"/><ellipse cx="1.628" cy="0.814" rx="1.628" ry="0.814" transform="translate(963.394 236.575)" fill="#5a9c4b"/><path d="M820.945,531.974a16.273,16.273,0,0,0-11.72-13.294,15.993,15.993,0,0,0-8.9.108,8.586,8.586,0,0,0-6.837-3.364,9.167,9.167,0,0,0-3.418.705,19.075,19.075,0,0,0-14.542-10.8v-.217a18.99,18.99,0,0,0-15.519-18.666,37.058,37.058,0,0,0-2.6-9.55H679.38a17.694,17.694,0,0,0-.38,3.8,18.942,18.942,0,0,0,8.519,15.844A36.614,36.614,0,0,0,723.765,527.9a38.1,38.1,0,0,0,7.922-.868,15.968,15.968,0,0,0-3.418,4.4,16.174,16.174,0,0,0,.76,16.55h84.429a15.974,15.974,0,0,0,7.488-16.007Z" transform="translate(-310.843 -218.132)" fill="#5a9c4b"/><path d="M611.813,518.479a32.556,32.556,0,1,0-65.113,0Zm142.108,22.464a16.273,16.273,0,0,0-11.72-13.294,16.054,16.054,0,0,0-16.821,5.426h-.543A18.954,18.954,0,0,0,708.559,514.3v-.217a18.99,18.99,0,0,0-15.518-18.665,35.457,35.457,0,0,0-2.659-9.6,9.857,9.857,0,0,0-9.007-5.914H621.851a9.832,9.832,0,0,0-9.875,9.658v.108a18.943,18.943,0,0,0,8.519,15.844,36.614,36.614,0,0,0,36.246,31.363,38.115,38.115,0,0,0,7.922-.868,15.974,15.974,0,0,0-3.419,4.4A16.174,16.174,0,0,0,662,556.95h84.429A15.973,15.973,0,0,0,753.921,540.943Z" transform="translate(-250.329 -219.504)" fill="#447337"/><path d="M672.813,500.556a32.556,32.556,0,0,0-65.113,0Z" transform="translate(-278.231 -214.061)" fill="#5a9c4b"/><ellipse cx="1.628" cy="0.814" rx="1.628" ry="0.814" transform="translate(726.276 267.504)" fill="#5a9c4b"/><ellipse cx="1.628" cy="0.814" rx="1.628" ry="0.814" transform="translate(631.863 247.428)" fill="#5a9c4b"/><ellipse cx="1.628" cy="0.814" rx="1.628" ry="0.814" transform="translate(576.517 275.1)" fill="#5a9c4b"/><ellipse cx="1.628" cy="0.814" rx="1.628" ry="0.814" transform="translate(966.65 275.643)" fill="#5a9c4b"/><path d="M699.4,474.436a10.833,10.833,0,1,0-10.8-10.8A10.722,10.722,0,0,0,699.4,474.436Z" transform="translate(-315.234 -207.095)" fill="#5a9c4b"/><path d="M1482.09,457.546a1.722,1.722,0,0,1-1.52-1.031,10.072,10.072,0,0,0-5.48-5.589.2.2,0,0,1-.109-.271.3.3,0,0,1,.271-.163c.326.054.6.163.869.217a10.842,10.842,0,0,1,6.348,5.426,12.762,12.762,0,0,0-5.915-9.17.261.261,0,0,1-.108-.326.2.2,0,0,1,.271-.109c.38.163.652.271.977.434a13.2,13.2,0,0,1,6.891,9.333,1.07,1.07,0,0,1-1.085,1.248Zm183.238-5.969a1.062,1.062,0,0,1-1.031-.705,6.8,6.8,0,0,0-3.8-3.852.284.284,0,0,1-.108-.217c0-.054.108-.109.163-.109.217.054.38.109.6.163a7.331,7.331,0,0,1,4.341,3.69,8.769,8.769,0,0,0-4.07-6.294c-.054-.054-.108-.109-.054-.217.054-.054.108-.109.217-.054a3.617,3.617,0,0,1,.651.326,9.279,9.279,0,0,1,4.775,6.4.741.741,0,0,1-.76.868Zm-86.437,25.5a1.72,1.72,0,0,0,1.519-1.031,10.075,10.075,0,0,1,5.481-5.589.2.2,0,0,0,.108-.271.3.3,0,0,0-.271-.163c-.326.054-.6.163-.869.217a10.841,10.841,0,0,0-6.348,5.426,12.762,12.762,0,0,1,5.914-9.17.261.261,0,0,0,.109-.326.2.2,0,0,0-.271-.108c-.38.163-.651.271-.977.434a13.2,13.2,0,0,0-6.89,9.333,1.07,1.07,0,0,0,1.084,1.248Zm173.091-5.426a1.721,1.721,0,0,0,1.519-1.031,10.074,10.074,0,0,1,5.481-5.589.2.2,0,0,0,.108-.271.3.3,0,0,0-.271-.163c-.326.054-.6.163-.868.217a10.841,10.841,0,0,0-6.349,5.426,12.762,12.762,0,0,1,5.914-9.17.261.261,0,0,0,.108-.326.2.2,0,0,0-.271-.109c-.38.163-.651.271-.977.434a13.2,13.2,0,0,0-6.891,9.333,1.07,1.07,0,0,0,1.085,1.248Z" transform="translate(-674.912 -203.065)" fill="#9bd96f"/><ellipse cx="1.628" cy="0.814" rx="1.628" ry="0.814" transform="translate(787.59 230.607)" fill="#6fbf5c"/><g transform="translate(286.766 129.682)"><path d="M818.043,275.085a.543.543,0,1,1,0-1.085h4.884a.543.543,0,0,1,0,1.085Z" transform="translate(-660.959 -255.009)" fill="#fff"/><path d="M756.885,448.643l.651-5.643-.054.054a9.28,9.28,0,0,0-3.581,7.38v2.333h3.256l6.511-6.511A9.222,9.222,0,0,0,756.885,448.643Z" transform="translate(-631.868 -332.309)" fill="#447337"/><path d="M805,506.091,820.193,461,805,470.224Z" transform="translate(-655.241 -340.542)" fill="#de5833"/><path d="M766.861,478H714.5v43.408H761l5.86-16.983Z" transform="translate(-613.847 -348.318)" fill="#9c452d"/><path d="M763.606,478H714.5v43.951h46.392l2.714-8.085Z" transform="translate(-613.847 -348.318)" fill="#de5833"/><path d="M752.431,478H696v74.88h46.013l10.418-30.928Z" transform="translate(-605.385 -348.318)" fill="#9c452d"/><path d="M627.429,461c-1.574,0-3.744.38-4.775,1.519l-3.581,4.124c-1.085,1.085-3.256,2.5-4.775,2.5H599.484a13.014,13.014,0,0,0-9.224,3.8l-6.131,6.131a8.714,8.714,0,0,1-6.132,2.55h-7.162a8.549,8.549,0,0,0-7.488,4.341L529,545.1h80.848l84.1-84.1Z" transform="translate(-529 -340.542)" fill="#9bd96f"/><g transform="translate(60.492 2.17)"><g transform="translate(18.729 65.655)"><path d="M35,121h8.139v54.8H35Zm28.27,21.162L53.449,121H44.224l13.022,27.13v19.534H64.3V146.719A10.191,10.191,0,0,0,63.27,142.162Z" transform="translate(-35 -121)" fill="#230545"/><path d="M35,121H53.991v9.767H35Z" transform="translate(-35 -121)" fill="#230545"/></g><path d="M46,130.767h2.17V175.8H46Zm22.844,11.395L59.022,121H56.309l9.821,21.162a10.974,10.974,0,0,1,1.031,4.558v20.944h2.713V146.719A10.191,10.191,0,0,0,68.844,142.162Z" transform="translate(-21.303 -55.345)" fill="#544463"/><path d="M68.69,54.977A3.35,3.35,0,0,0,66.411,54H65V90.354h2.713V63.767l2.713,2.713L75.309,61.6Z" transform="translate(-29.993 -24.699)" fill="#de5833"/><path d="M114,4.9V35.34a24.6,24.6,0,0,0,4.341.868V5.768A24.6,24.6,0,0,1,114,4.9Z" transform="translate(-52.406 -2.241)" fill="#9c452d"/><path d="M136.65,4.036c-4.883.705-9.767,1.411-14.65.868v30.44c4.883.543,9.767-.163,14.65-.868,6.348-.922,12.643-1.845,18.991,0V4.036C149.293,2.245,143,3.167,136.65,4.036Z" transform="translate(-56.065 -1.377)" fill="#de5833"/><path d="M148.278,16.364A9.733,9.733,0,0,1,141.224,13a9.733,9.733,0,0,1-7.054,3.364H132v.922c0,10.147,3.69,14,9.224,17.418,5.535-3.418,9.224-7.325,9.224-17.418v-.922Z" transform="translate(-60.639 -5.946)" fill="#9c452d"/><path d="M145.341,30.426a3.261,3.261,0,0,1,2.93,2.116,4.341,4.341,0,1,0-5.86,0A3.261,3.261,0,0,1,145.341,30.426Z" transform="translate(-64.755 -11.435)" fill="#fff"/><path d="M149.46,37.116a3.087,3.087,0,0,0-5.86,0,4.337,4.337,0,0,0,5.86,0Z" transform="translate(-65.945 -16.009)" fill="#230545"/><circle cx="1.628" cy="1.628" r="1.628" transform="translate(78.958 15.736)" fill="#230545"/><path d="M50.805,54H31V90.354H49.449V56.17a2.16,2.16,0,0,1,1.791-2.116A1.058,1.058,0,0,0,50.805,54Z" transform="translate(-14.442 -24.699)" fill="#9c452d"/><path d="M67.673,53.96l-3.8-3.8-4.883,4.883,3.31,3.31a5.37,5.37,0,0,0,3.852,1.574h5.372V53.96ZM40,40.937h5.969V43.65H40ZM59.1,30.085A2.189,2.189,0,0,0,57.2,29H54.65v3.8h5.969Z" transform="translate(-18.558 -13.264)" fill="#230545"/><path d="M58,47h2.713v3.8H58Z" transform="translate(-26.791 -21.498)" fill="#f1a031"/><path d="M51,47h3.8v3.8H51Z" transform="translate(-23.59 -21.498)" fill="#ffb652"/><path d="M60.883,40.937a4.863,4.863,0,0,0,4.883-4.883V29H56v7.054A4.863,4.863,0,0,0,60.883,40.937Z" transform="translate(-25.877 -13.264)" fill="#ffb652"/><path d="M58.827,28.883H62.9l-1.357-2.17H56.657a1.088,1.088,0,0,1-1.085-1.085V24H47.378a1.928,1.928,0,0,0-.543.109A7.033,7.033,0,0,0,43.2,30.24v.543a6.417,6.417,0,0,0,1.519,4.232V38.65h4.287a5.6,5.6,0,0,0,3.852-1.574l2.767-2.767V32.682h.543A1.088,1.088,0,0,0,57.253,31.6V30.511A1.524,1.524,0,0,1,58.827,28.883Z" transform="translate(-20.022 -10.977)" fill="#230545"/><path d="M62.5,39.17a2.177,2.177,0,0,0,2.17,2.17V37A2.177,2.177,0,0,0,62.5,39.17Z" transform="translate(-28.85 -16.924)" fill="#ffb652"/><path d="M56.395,16H50.969A5.951,5.951,0,0,0,45,21.969v1.085H60.193V19.8A3.775,3.775,0,0,0,56.395,16Z" transform="translate(-20.845 -7.318)" fill="#2f6894"/><path d="M45.543,23h-.109A5.736,5.736,0,0,0,45,25.17v.543h3.744A3.264,3.264,0,0,0,45.543,23Z" transform="translate(-20.845 -10.52)" fill="#230545"/><path d="M63.969,20.341a2.736,2.736,0,0,1,2.062-2.659A3.788,3.788,0,0,0,62.883,16H58a3.775,3.775,0,0,1,3.8,3.8v3.256h4.883v-.543H63.969Z" transform="translate(-26.791 -7.318)" fill="#357db6"/><path d="M71.062,19.1A2.69,2.69,0,0,0,69,21.759v2.17h2.713V21.216A3.741,3.741,0,0,0,71.062,19.1Z" transform="translate(-31.823 -8.736)" fill="#60a5da"/><path d="M45,27H62.363v1.085H45Z" transform="translate(-20.845 -12.35)" fill="#2f6894"/><path d="M74.139,25h-3.8L66,27.17h5.969l2.17-1.085Z" transform="translate(-30.451 -11.435)" fill="#2f6894"/><path d="M35,75.7h0ZM47.205,54c-1.357,1.194-1.628,2.55-1.628,4.341V69.736c0,3.473-3.852,5.969-7.108,5.969h2.713c3.256,0,7.108-2.5,7.108-5.969V58.341c0-1.791.271-3.147,1.628-4.341Z" transform="translate(-15.997 -24.699)" fill="#230545"/><path d="M58.014,65.968a.768.768,0,0,1-.76.705h-4.4a.731.731,0,0,1-.76-.705v-.163a.768.768,0,0,1,.76-.705h4.4a.731.731,0,0,1,.76.705Zm0,4.287a.815.815,0,0,1-.76.76h-4.4a.742.742,0,0,1-.76-.76v-.163a.768.768,0,0,1,.76-.705h4.4a.731.731,0,0,1,.76.705Zm3.8,14.867H53.131v4.341h8.682Zm0-5.969H53.131v4.341h8.682Z" transform="translate(-24.093 -29.776)" fill="#230545"/><path d="M71.356,91H70v4.341h1.356a.834.834,0,0,0,.814-.814V91.814A.834.834,0,0,0,71.356,91Zm0,5.969H70v4.341h1.356a.834.834,0,0,0,.814-.814V97.783A.834.834,0,0,0,71.356,96.969Z" transform="translate(-32.28 -41.623)" fill="#544463"/><g transform="translate(0.389 17.363)"><path d="M27.411,1H4.4A3.241,3.241,0,0,0,1.8,2.628H27.411Z" transform="translate(-0.932 -0.457)" fill="#6fbf5c"/><path d="M1.068,4A6.184,6.184,0,0,0,.2,7.256,6.059,6.059,0,0,0,.8,9.969H26.679V4Z" transform="translate(-0.2 -1.83)" fill="#5a9c4b"/><path d="M1.2,15a3.409,3.409,0,0,0,2.876,2.17H27.082V15Z" transform="translate(-0.657 -6.861)" fill="#447337"/><path d="M19.823,5.48A8.674,8.674,0,0,1,21.125.6,1.344,1.344,0,0,1,22.264,0h.705a.344.344,0,0,1,.271.543,8.8,8.8,0,0,0-1.357,4.992,9.075,9.075,0,0,0,1.248,4.829H21.07A9.279,9.279,0,0,1,19.823,5.48ZM6.8,5.48A8.674,8.674,0,0,1,8.1.6,1.344,1.344,0,0,1,9.242,0h.705a.344.344,0,0,1,.271.543A8.8,8.8,0,0,0,8.862,5.535a9.075,9.075,0,0,0,1.248,4.829H8.048A9.279,9.279,0,0,1,6.8,5.48Z" transform="translate(-3.219 0)" fill="#230545"/><ellipse cx="3.798" cy="4.883" rx="3.798" ry="4.883" transform="translate(22.681 0.543)" fill="#6fbf5c"/><ellipse cx="2.17" cy="2.713" rx="2.17" ry="2.713" transform="translate(24.309 2.713)" fill="#fff"/><ellipse cx="1.085" cy="1.628" rx="1.085" ry="1.628" transform="translate(25.394 3.798)" fill="#c4d7b6"/></g><path d="M22.736,39H21.65a.513.513,0,0,1,.543.543V41.17a.513.513,0,0,1-.543.543h1.085a.513.513,0,0,0,.543-.543V39.543A.513.513,0,0,0,22.736,39ZM9.713,39H8.628a.513.513,0,0,1,.543.543V41.17a.513.513,0,0,1-.543.543H9.713a.513.513,0,0,0,.543-.543V39.543A.513.513,0,0,0,9.713,39Z" transform="translate(-3.464 -17.838)" fill="#c4d7b6"/><path d="M21.736,41.17V39.543A.513.513,0,0,0,21.193,39H19.565a.513.513,0,0,0-.543.543V41.17a.513.513,0,0,0,.543.543h1.628A.513.513,0,0,0,21.736,41.17Zm-13.023,0V39.543A.513.513,0,0,0,8.17,39H6.543A.513.513,0,0,0,6,39.543V41.17a.513.513,0,0,0,.543.543H8.17A.513.513,0,0,0,8.713,41.17Z" transform="translate(-3.007 -17.838)" fill="#fff"/><path d="M25.151,51H10.067a5.684,5.684,0,0,0-3.2,1.628L5.617,53.876a7.6,7.6,0,0,0-2.062,7l4.4,19.968H26.887Z" transform="translate(-1.81 -23.327)" fill="#357db6"/><path d="M30.791,106H11.8l.705,3.256H30.954Z" transform="translate(-5.66 -48.484)" fill="#544463"/><path d="M13.1,112v.054a4.112,4.112,0,0,0,3.961,3.2h14.65L31.494,112Z" transform="translate(-6.254 -51.228)" fill="#230545"/><path d="M43.98,50.9Z" transform="translate(-20.368 -23.281)" fill="#357db6"/><path d="M18.492,63.117a7.836,7.836,0,0,1,.434-4.612,7.467,7.467,0,0,1,1.248-1.953.053.053,0,0,1,.054-.054c.054-.054.109-.163.217-.217.054-.054.109-.109.109-.163l.217-.217H12.035a5.75,5.75,0,0,0-4.07,1.682L6.717,58.83a7.6,7.6,0,0,0-2.062,7l.868,4.07A1.621,1.621,0,0,0,7.1,71.2H18.22a1.621,1.621,0,0,0,1.574-1.953Z" transform="translate(-2.313 -25.568)" fill="#2f6894"/><path d="M33.465,52.628l-1.248,1.248a7.6,7.6,0,0,0-2.062,7l5.1,23.278a4.112,4.112,0,0,0,3.961,3.2,4.342,4.342,0,0,0,4.341-4.07V56.7a6.025,6.025,0,0,0-5.1-5.7H36.667A5.684,5.684,0,0,0,33.465,52.628Z" transform="translate(-13.977 -23.327)" fill="#60a5da"/><path d="M16.662,63.3a7.6,7.6,0,0,1,2.062-7H2.717a7.6,7.6,0,0,0-2.062,7l.868,4.07a1.621,1.621,0,0,0,1.574,1.3h12.7a1.621,1.621,0,0,0,1.574-1.953Z" transform="translate(-0.484 -25.751)" fill="#357db6"/><path d="M16.926,51.543a5.4,5.4,0,0,1,.6-.543h-5.1A7.112,7.112,0,0,0,10.9,52.085L9.655,53.333c-.163.163-.326.38-.488.543H14.7a5.76,5.76,0,0,1,.922-1.085Zm-8.139,0a5.4,5.4,0,0,1,.6-.543H8.949a5.684,5.684,0,0,0-3.2,1.628L4.5,53.876H6.616a5.76,5.76,0,0,1,.922-1.085ZM20.561,51a7.113,7.113,0,0,0-1.519,1.085l-1.248,1.248c-.163.163-.326.38-.488.543h3.2l1.248-1.248A6.043,6.043,0,0,1,24.956,51Z" transform="translate(-2.321 -23.327)" fill="#2f6894"/><path d="M21.161,62.214,22.68,69.7H24.8l-1.465-6.945A7.69,7.69,0,0,1,24.9,56.3H22.3A7.781,7.781,0,0,0,21.161,62.214Z" transform="translate(-9.866 -25.751)" fill="#544463"/><path d="M27.787,52.085A5.158,5.158,0,0,1,29.306,51H26.267a2.844,2.844,0,0,0-.6.543l-1.248,1.248a8.856,8.856,0,0,0-.922,1.085h2.6c.163-.163.326-.38.488-.543Z" transform="translate(-11.011 -23.327)" fill="#230545"/><path d="M6.161,62.214,7.68,69.7H9.8L8.331,62.757A7.69,7.69,0,0,1,9.9,56.3H7.3A7.781,7.781,0,0,0,6.161,62.214Z" transform="translate(-3.005 -25.751)" fill="#544463"/><path d="M12.787,52.085A5.158,5.158,0,0,1,14.306,51H11.267a2.844,2.844,0,0,0-.6.543L9.422,52.791A8.856,8.856,0,0,0,8.5,53.876h2.6c.163-.163.326-.38.488-.543ZM17.4,66.193a.572.572,0,0,0-.543.651l.326,1.519.217,1.194a.528.528,0,0,0,.543.434h1.031a.572.572,0,0,0,.543-.651l-.543-2.713a.528.528,0,0,0-.543-.434Zm-8.356,2.17.217,1.194a.528.528,0,0,0,.543.434h1.031a.572.572,0,0,0,.543-.651l-.543-2.713a.528.528,0,0,0-.543-.434H9.26a.572.572,0,0,0-.543.651Z" transform="translate(-4.15 -23.327)" fill="#230545"/><circle cx="1.628" cy="1.628" r="1.628" transform="translate(6.791 35.812)" fill="#230545"/><path d="M11.511,89.628H20.03a.573.573,0,0,0,.543-.651l-.109-.543A.528.528,0,0,0,19.922,88H11.837a.572.572,0,0,0-.543.651Z" transform="translate(-5.425 -40.251)" fill="#544463"/><path d="M13.057,93.17h-.109a.934.934,0,0,1-.922-.76L11.7,91h1.628l.326,1.411A.578.578,0,0,1,13.057,93.17Z" transform="translate(-5.614 -41.623)" fill="#230545"/><path d="M23.034,98.628h-8.79a.528.528,0,0,1-.543-.434l-.109-.543A.543.543,0,0,1,14.136,97H22.22a.528.528,0,0,1,.543.434Z" transform="translate(-6.476 -44.367)" fill="#544463"/><path d="M29.3,102.17h.109a.578.578,0,0,0,.6-.76L29.628,100H28l.326,1.411A1.042,1.042,0,0,0,29.3,102.17Z" transform="translate(-13.07 -45.74)" fill="#230545"/><path d="M49.256,86.411,48.713,85H46V95.309h2.17a2.177,2.177,0,0,0,2.17-2.17V88.256A2.038,2.038,0,0,0,49.256,86.411Z" transform="translate(-21.303 -38.879)" fill="#e3ead3"/><path d="M44.17,93.139V88.256a2.038,2.038,0,0,1,1.085-1.845L45.8,85h-2.17l-.543,1.411A2.167,2.167,0,0,0,42,88.256v4.883a2.177,2.177,0,0,0,2.17,2.17H45.8v-.054A2.213,2.213,0,0,1,44.17,93.139Z" transform="translate(-19.473 -38.879)" fill="#c4d7b6"/><path d="M46,96v7.054a3.257,3.257,0,0,0,2.442,3.147,3.257,3.257,0,0,0,2.442-3.147V96Z" transform="translate(-21.303 -43.91)" fill="#357db6"/><path d="M43.713,103.054V96H41v7.054a3.265,3.265,0,0,0,3.256,3.256h1.085a3.693,3.693,0,0,0,.814-.109A3.257,3.257,0,0,1,43.713,103.054Z" transform="translate(-19.016 -43.91)" fill="#2f6894"/><path d="M47.527,83H44.814a.814.814,0,1,0,0,1.628h2.713a.814.814,0,1,0,0-1.628Z" transform="translate(-20.388 -37.964)" fill="#230545"/><path d="M47.628,81H46.543a.513.513,0,0,0-.543.543v.543a.513.513,0,0,0,.543.543h1.085a.513.513,0,0,0,.543-.543v-.543A.513.513,0,0,0,47.628,81Z" transform="translate(-21.303 -37.049)" fill="#230545"/><path d="M41,99h7.6v1.628H41Zm0,3.256h7.6v1.628H41Z" transform="translate(-19.016 -45.282)" fill="#544463"/><path d="M41,99h2.713v1.628H41Zm0,3.256h2.713v1.628H41Z" transform="translate(-19.016 -45.282)" fill="#230545"/><g transform="translate(24.697 32.556)"><path d="M46,67.6h1.628V60.543A.513.513,0,0,0,47.085,60h-.543a.513.513,0,0,0-.543.543Z" transform="translate(-46 -60)" fill="#2f6894"/><path d="M46.868,76.17H46.76a.742.742,0,0,1-.76-.76V74h1.628v1.411A.742.742,0,0,1,46.868,76.17Z" transform="translate(-46 -66.404)" fill="#230545"/></g><g transform="translate(20.356 32.556)"><path d="M38,67.6h1.628V60.543A.513.513,0,0,0,39.085,60h-.543a.513.513,0,0,0-.543.543Z" transform="translate(-38 -60)" fill="#2f6894"/><path d="M38.868,76.17H38.76a.742.742,0,0,1-.76-.76V74h1.628v1.411a.742.742,0,0,1-.76.76Z" transform="translate(-38 -66.404)" fill="#230545"/></g><g transform="translate(7.334 64.027)"><path d="M31.232,118H16.582a2.051,2.051,0,0,0-1.682,1.085H31.232Z" transform="translate(-14.412 -118)" fill="#447337"/><path d="M14.488,120A3.666,3.666,0,0,0,14,121.9c0,1.628.977,2.984,2.17,2.984h14.65V120Z" transform="translate(-14 -118.915)" fill="#5a9c4b"/></g><ellipse cx="2.17" cy="2.984" rx="2.17" ry="2.984" transform="translate(21.984 64.027)" fill="#6fbf5c"/><ellipse cx="1.085" cy="1.899" rx="1.085" ry="1.899" transform="translate(23.069 65.113)" fill="#e3ead3"/><path d="M29.813,118H28.185a4.226,4.226,0,0,0-1.031,2.984,4.489,4.489,0,0,0,1.031,2.984h1.628a4.835,4.835,0,0,1,0-5.969Zm-7.054,0H21.131a4.226,4.226,0,0,0-1.031,2.984,4.489,4.489,0,0,0,1.031,2.984h1.628a4.835,4.835,0,0,1,0-5.969Zm0,5.969h1.628v3.256H22.759Z" transform="translate(-9.456 -53.973)" fill="#230545"/><path d="M38,129h1.628v3.256H38Z" transform="translate(-17.644 -59.004)" fill="#544463"/><path d="M111.713,118.288H109V1.085A1.088,1.088,0,0,1,110.085,0h.543a1.088,1.088,0,0,1,1.085,1.085Z" transform="translate(-50.119)" fill="#230545"/><path d="M106.682,69v1.628a.513.513,0,0,1-.543.543h-1.628a.513.513,0,0,1-.543-.543V69.163a1.021,1.021,0,0,0-.977-.054,1.064,1.064,0,0,0-.651,1.031v1.3a1.343,1.343,0,0,1-1.357,1.356H98v4.883h8.139a3.265,3.265,0,0,0,3.256-3.256V71.713A2.687,2.687,0,0,0,106.682,69Z" transform="translate(-45.087 -31.56)" fill="#ffb652"/><g transform="translate(40.975 112.319)"><path d="M76,207h4.883v5.969H76Z" transform="translate(-76 -207)" fill="#7d3623"/><path d="M94.224,212.969H85V207h2.713l5.318,2.659a2.161,2.161,0,0,1,1.194,1.953Z" transform="translate(-80.117 -207)" fill="#9c452d"/></g><g transform="translate(18.729 120.458)"><path d="M35,222h5.969v5.969H35Z" transform="translate(-35 -222)" fill="#7d3623"/><path d="M54.682,227.969H46V222h2.17l5.318,2.659a2.161,2.161,0,0,1,1.194,1.953Z" transform="translate(-40.031 -222)" fill="#9c452d"/></g></g><path d="M655.117,457.449c.38.109.651.163.977.271a12.26,12.26,0,0,1,7.217,6.132,14.243,14.243,0,0,0-6.783-10.364l.217-.488a10.551,10.551,0,0,1,1.085.488,15.2,15.2,0,0,1,7.434,8.573,10.261,10.261,0,0,1,.543,3.418h-4.612a4.951,4.951,0,0,0-.705-2.6,11.318,11.318,0,0,0-5.589-4.938Z" transform="translate(-586.586 -336.883)" fill="#447337"/><path d="M695.338,472.991,707.329,461H689.1c-1.574,0-3.744.38-4.775,1.519l-3.581,4.124c-1.085,1.085-3.255,2.5-4.775,2.5h-4.992l-4.287,4.287a1.612,1.612,0,0,0,1.139,2.767h19.805A10.886,10.886,0,0,0,695.338,472.991Z" transform="translate(-591.754 -340.542)" fill="#6fbf5c"/><path d="M775.365,283.493c-1.031,0-2.062-.054-3.038-.109a.486.486,0,0,1-.488-.488.512.512,0,0,1,.543-.543c.976.054,1.953.109,2.984.109a86.354,86.354,0,0,0,11.232-.977,67.627,67.627,0,0,1,9.278-.705c.868,0,1.791,0,2.6.054a.544.544,0,0,1,.543.543.493.493,0,0,1-.163.38.587.587,0,0,1-.38.163c-.868-.054-1.736-.054-2.6-.054a68.391,68.391,0,0,0-9.333.705A96.976,96.976,0,0,1,775.365,283.493Zm-4.992-42.323a26.769,26.769,0,0,1-2.984-.163.535.535,0,0,1-.488-.543.529.529,0,0,1,.543-.6,25.96,25.96,0,0,0,2.93.109A69.855,69.855,0,0,0,780.411,239h.054a.594.594,0,0,1,.543.6.654.654,0,0,1-.434.6A75.264,75.264,0,0,1,770.373,241.17ZM771.729,290a22.521,22.521,0,0,1-2.659-.163.535.535,0,0,1-.489-.543.529.529,0,0,1,.543-.6,23.169,23.169,0,0,0,2.659.108,33.546,33.546,0,0,0,6.077-.651q.977-.163,2.116-.326h.054a.594.594,0,0,1,.543.6.655.655,0,0,1-.434.6,19.814,19.814,0,0,0-2.171.38A42.47,42.47,0,0,1,771.729,290Zm26.8-40.533a26.82,26.82,0,0,1-7.868-1.465.556.556,0,0,1-.326-.271,1.054,1.054,0,0,1-.054-.434.522.522,0,0,1,.489-.38.2.2,0,0,1,.163.054,25.223,25.223,0,0,0,7.488,1.411,13.381,13.381,0,0,0,3.039-.326h.108a.528.528,0,0,1,.543.434.612.612,0,0,1-.054.434.8.8,0,0,1-.326.271,19.051,19.051,0,0,1-3.2.271Z" transform="translate(-637.814 -239)" fill="#fff"/></g><path d="M1041.5,568.6c-12.263,0-23.061,6.131-28.7,16.658h57.462C1064.51,574.731,1053.767,568.6,1041.5,568.6Z" transform="translate(-463.522 -260.075)" fill="#5a9c4b"/><path d="M1191.485,540.816c-.435,0-.76-.271-1.194-.271a32.079,32.079,0,0,0-52.307-.868,20.836,20.836,0,0,0-7.488-1.411,20.377,20.377,0,0,0-8.03,1.573A21.49,21.49,0,0,0,1086.6,555.9v4.178h128.651C1213.189,548.412,1203.314,540.816,1191.485,540.816Zm252.094,12.371c-.434,0-.76-.271-1.194-.271a32.228,32.228,0,0,0-26.371-13.945,31.905,31.905,0,0,0-25.937,13.131,20.834,20.834,0,0,0-7.488-1.411,20.378,20.378,0,0,0-8.03,1.574,21.49,21.49,0,0,0-35.867,16.061V572.5h128.651C1465.283,560.784,1455.407,553.187,1443.579,553.187Z" transform="translate(-497.277 -240.864)" fill="#5a9c4b"/><g transform="translate(6.728 284.487)"><path d="M19.3,555.011h.271c3.744-5.209,10.472-8.465,18.177-8.465,8.085,0,15.084,3.256,18.72,9.5a28.243,28.243,0,0,1,19.751-1.9c4.07-10.472,14.759-17.8,27.239-17.8a29.138,29.138,0,0,1,27.564,19.371c2.984-1.465,6.348-1.465,9.93-1.465,8.465,0,15.844,2.333,19.208,10.31H88.539v5.589h86.274c-2.984-16.007-16.441-26.425-32.61-26.425-.543,0-1.031-.38-1.628-.38a43.92,43.92,0,0,0-71.624-1.085,28.645,28.645,0,0,0-10.255-1.9,27.259,27.259,0,0,0-10.961,2.171,29.1,29.1,0,0,0-34.835-3.2v16.821A18.086,18.086,0,0,1,19.3,555.011Z" transform="translate(-12.9 -524.299)" fill="#5a9c4b"/><path d="M88.539,574.815h71.57c-3.364-8.031-10.744-10.309-19.208-10.309-3.581,0-6.945,0-9.93,1.465A29.086,29.086,0,0,0,103.406,546.6c-12.48,0-23.169,7.271-27.239,17.8a28.542,28.542,0,0,0-19.751,1.9c-3.635-6.24-10.635-9.5-18.72-9.5-7.7,0-14.433,3.31-18.177,8.465h-.271a18.8,18.8,0,0,0-6.348,1.085v14.108H88.485v-5.643Z" transform="translate(-12.9 -534.5)" fill="#447337"/></g><path d="M1157.152,553.3c-12.263,0-23.061,6.131-28.7,16.658h57.462C1180.213,559.431,1169.415,553.3,1157.152,553.3Zm-160.34,33.479a32.556,32.556,0,1,0-65.113,0Z" transform="translate(-426.427 -253.077)" fill="#5a9c4b"/><path d="M917.4,578.768a34.469,34.469,0,0,0-31.8,21.162h63.593A34.469,34.469,0,0,0,917.4,578.768Zm80.685,4.829a21.4,21.4,0,0,0-36.463,13.077h42.594A21.208,21.208,0,0,0,998.082,583.6Z" transform="translate(-405.341 -264.058)" fill="#447337"/><path d="M640.959,572.122a9.391,9.391,0,0,1,6.783,2.821,22.622,22.622,0,0,1,9.984-2.279c4.666,0,37.168,1.411,40.8,3.8a9.517,9.517,0,0,1,8.031-4.341,9.88,9.88,0,0,1,5.48,1.682,23.317,23.317,0,0,1,45.362,7.054H631.355A9.618,9.618,0,0,1,640.959,572.122ZM418.6,537.775a10.687,10.687,0,0,1,7.705,1.139L423.918,533a10.575,10.575,0,0,1,5.48,4.938,10.188,10.188,0,0,1,5.48-4.558l-3.8,9.6h-5.372Z" transform="translate(-191.737 -243.792)" fill="#447337"/><path d="M609.866,567.719a9.127,9.127,0,0,0,8.41-5.589,9.053,9.053,0,1,0-8.41,5.589Zm136.357-17.689a10.689,10.689,0,0,0-7.705,1.139l2.442-5.914a10.573,10.573,0,0,0-5.48,4.938,10.188,10.188,0,0,0-5.48-4.558l3.8,9.6h5.372l7.054-5.209ZM435.256,542A32.582,32.582,0,0,0,402.7,574.556h65.112A32.582,32.582,0,0,0,435.256,542Z" transform="translate(-184.464 -247.908)" fill="#5a9c4b"/><path d="M441.256,555A32.582,32.582,0,0,0,408.7,587.556h65.113A32.582,32.582,0,0,0,441.256,555Z" transform="translate(-187.209 -253.855)" fill="#447337"/><path d="M1500.558,553.481c-2.985,0-5.806,0-8.248,1.3-3.147-9.658-12.155-16.984-22.843-16.984a24.091,24.091,0,0,0-21.053,12.154,14.083,14.083,0,0,0-9.17-3.581,13.877,13.877,0,0,0-11.069,5.534c-3.2-3.527-7.977-4.666-13.294-4.666-9.279,0-16.929,4.449-17.581,14.976h119.264C1513.743,555.868,1507.666,553.481,1500.558,553.481Zm74.716,9.387,32.23,8.139,87.034-8.139c-.705-10.526-8.3-14.976-17.58-14.976-5.318,0-10.093,1.194-13.294,4.666a13.5,13.5,0,0,0-11.069-5.534,13.87,13.87,0,0,0-9.17,3.581,23.979,23.979,0,0,0-21.053-12.154c-10.69,0-19.7,7.325-22.9,16.984-2.442-1.3-5.263-1.3-8.248-1.3-7.054-.054-13.185,2.333-15.953,8.736Z" transform="translate(-639.39 -245.987)" fill="#5a9c4b"/><path d="M1553.453,601.248h64.353l6.837-12.426,45.633-4.5c-2.442-5.86-7.868-7.488-14.053-7.488-2.659,0-5.1,0-7.271,1.031A21.311,21.311,0,0,0,1628.82,563.7c-9.115,0-16.929,5.318-19.913,12.968a20.43,20.43,0,0,0-14.433,1.411c-2.6-4.558-7.7-6.945-13.619-6.945-5.588,0-10.526,2.387-13.293,6.186h-.218a13.988,13.988,0,0,0-13.945,14.162v9.767Z" transform="translate(-710.788 -257.834)" fill="#447337"/><path d="M596.648,550.635c-.434,0-.76-.054-1.194-.054a32.107,32.107,0,0,0-52.307-.6,21.011,21.011,0,0,0-15.519.163A21.612,21.612,0,0,0,491.6,566.208v3.256H620.414C618.244,558.34,608.423,550.635,596.648,550.635Z" transform="translate(-225.127 -245.529)" fill="#5a9c4b"/><path d="M492.7,590.285h64.95V572.162h52.578c-2.442-4.124-7.868-6.728-14.053-6.728A16.158,16.158,0,0,0,588.9,566.9a21.567,21.567,0,0,0-40.044-.868,20.659,20.659,0,0,0-5.155-.651,21.121,21.121,0,0,0-9.278,2.116c-2.6-4.558-7.7-6.891-13.619-6.891-5.589,0-10.527,2.387-13.294,6.186h-.543A14.265,14.265,0,0,0,492.7,580.953Z" transform="translate(-225.63 -252.894)" fill="#447337"/><path d="M651.352,504.127a6.883,6.883,0,0,0-5.155.76l1.573-4.286a7.527,7.527,0,0,0-3.635,3.473,6.822,6.822,0,0,0-3.635-3.2l2.116,5.86a1.631,1.631,0,0,0,1.519,1.085h1.845a1.788,1.788,0,0,0,1.031-.325Z" transform="translate(-293.233 -228.972)" fill="#5a9c4b"/><path d="M1531.308,587.915a14.108,14.108,0,1,0-14.108-14.108A14.079,14.079,0,0,0,1531.308,587.915Z" transform="translate(-694.232 -256.004)" fill="#447337"/><path d="M1514.507,576.915a14.108,14.108,0,1,0-14.107-14.108A14.08,14.08,0,0,0,1514.507,576.915Z" transform="translate(-686.548 -250.973)" fill="#447337"/><g transform="translate(663.876 245.257)"><path d="M1263.093,477H1253v3.852l1.573,1.574h10.907l1.519-1.519Z" transform="translate(-1237.264 -463.435)" fill="#c4d7b6"/><path d="M1227.038,477,1224,479.17v1.736a3.037,3.037,0,0,0,.977,2.279l1.465,1.465a3.35,3.35,0,0,0,2.279.977h7.976a3.039,3.039,0,0,1,2.279.977l1.356,1.357a3.35,3.35,0,0,0,2.279.977h11.5a3.244,3.244,0,0,0,2.333-.977l1.3-1.3a3.2,3.2,0,0,0,.922-2.279v-1.085a3.2,3.2,0,0,0-.922-2.279l-3.961-3.961h-26.75Z" transform="translate(-1224 -463.435)" fill="#5a9c4b"/><path d="M1254.614,463.72l-4.341-4.341V452h-7.488l-7.6,8.682h-3.2l-7.488,7.325,1.356,1.357h28.758Z" transform="translate(-1224.229 -452)" fill="#c4d7b6"/><path d="M1234.961,462.852h-2.822l-6.511,6.511L1224,467.736l8.139-8.139h2.822l7.6-7.6h7.488v3.256h-7.488Zm15.084-4.124,4.341,4.287v3.527l-4.341-4.341Z" transform="translate(-1224 -452)" fill="#e3ead3"/><path d="M1258.852,472.256V469h-2.713L1248,477.139h15.736Z" transform="translate(-1234.977 -459.776)" fill="#abbda0"/></g><g transform="translate(391.478 266.419)"><path d="M729.426,496.17h5.969V494h3.744l3.31,2.17V501.6H724Z" transform="translate(-722.904 -492.372)" fill="#e3ead3"/><path d="M748.581,492.628H745V491h5.426l3.255,3.255v3.256l2.713,2.713h-4.341v-4.4Z" transform="translate(-732.509 -491)" fill="#fff"/><path d="M738,505.256h7.6L742.341,502H738Z" transform="translate(-729.307 -496.031)" fill="#c4d7b6"/><path d="M722.533,508.543l.543-.543h22.789l-2.442,2.442a4.552,4.552,0,0,1-3.255,1.356h-.651a4.226,4.226,0,0,0-3.093,1.3,2.988,2.988,0,0,1-2.17.868h-4.666a2.177,2.177,0,0,1-2.171-2.171H723.89A1.915,1.915,0,0,1,722.533,508.543Z" transform="translate(-721.98 -498.776)" fill="#6fbf5c"/></g><g transform="translate(821.774 273.473)"><path d="M1528.565,505.628,1526.937,504H1518.8l-3.8,3.8h4.34l2.171-2.17Z" transform="translate(-1515 -504)" fill="#e3ead3"/><path d="M1532.224,507h-7.053L1523,509.17h9.224Z" transform="translate(-1518.66 -505.372)" fill="#c4d7b6"/><path d="M1529.47,512.628h-10.256a4.312,4.312,0,0,1-2.278-.6L1515.2,511h13.565l1.3.814C1530.556,512.085,1530.176,512.628,1529.47,512.628Z" transform="translate(-1515.091 -507.202)" fill="#5a9c4b"/></g><g transform="translate(129.408 233.32)"><path d="M242,431.628,243.628,430h8.139l3.8,3.8h-4.341l-2.17-2.17Z" transform="translate(-240.369 -430)" fill="#e3ead3"/><path d="M242,433h7.054l2.17,2.17H242Z" transform="translate(-240.369 -431.372)" fill="#c4d7b6"/><path d="M239.811,438.628h10.255a4.313,4.313,0,0,0,2.279-.6L254.082,437H240.517l-1.3.814C238.726,438.085,239.106,438.628,239.811,438.628Z" transform="translate(-238.995 -433.202)" fill="#5a9c4b"/></g><g transform="translate(876.035 231.149)"><path d="M1656.889,450l5.047,5.046a3.719,3.719,0,0,1-2.659,6.349h-23.006a6.573,6.573,0,0,1-4.612-1.9l-1.031-1.031a6.442,6.442,0,0,0-4.612-1.9h-4.45a3.777,3.777,0,0,1-2.658-1.085L1615,451.574V450Z" transform="translate(-1615 -436.977)" fill="#5a9c4b"/><path d="M1656.781,442.147l-7.813-7.976h-16.658l-7,7.054v1.628H1615v-4.883h5.535l6.023-5.969h25.611l10.038,10.147v5.046h-5.426Z" transform="translate(-1615 -428.744)" fill="#e3ead3"/><path d="M1655.75,444.139V439.8h-5.1l-5.968,5.969h-4.341a6.4,6.4,0,0,0-4.178-1.085H1634.1v-1.791l6.837-6.891h16.82l7.813,7.976v5.046h-4.34v-4.884Z" transform="translate(-1623.736 -430.574)" fill="#c4d7b6"/><path d="M1645.6,448.969h3.039l5.968-5.969h6.4v4.341h5.426v4.883h-14.162a7.952,7.952,0,0,1-5.48-2.279,6.725,6.725,0,0,0-1.194-.977Z" transform="translate(-1628.996 -433.776)" fill="#abbda0"/><path d="M1627.166,429.256l-5.969,5.969h-5.7l9.441-9.224h24.635l2.062,2.116,1.085,1.139Zm0,0-5.969,5.969Z" transform="translate(-1615.229 -426)" fill="#fff"/></g><g transform="translate(1006.748 218.67)"><path d="M1896.216,462.426h25.231a1.612,1.612,0,0,0,1.14-2.767L1919.927,457H1855.9l3.527,3.31a8.183,8.183,0,0,0,5.535,2.116h2.713a6.136,6.136,0,0,1,4.232,1.682,8.182,8.182,0,0,0,5.534,2.116h10.581a5.287,5.287,0,0,0,4.069-1.9A5.575,5.575,0,0,1,1896.216,462.426Z" transform="translate(-1855.9 -427.699)" fill="#5a9c4b"/><path d="M1906.354,412.767H1892.68L1882.914,403h-14.976L1856,414.937V432.3h64.027v-5.86Z" transform="translate(-1855.946 -403)" fill="#e3ead3"/><path d="M1896.533,417.108h13.673l-3.907-4.341h-13.728Zm-36.192-2.17,8.682-8.682h16.983l-2.93-3.256H1866.31L1856,413.31V432.3h4.341Z" transform="translate(-1855.946 -403)" fill="#fff"/><path d="M1914.974,432.767h-19.1v-4.4L1890.5,423h-10.364L1872,431.139v10.309h48.834v-2.93Z" transform="translate(-1863.264 -412.148)" fill="#c4d7b6"/></g><g transform="translate(1018.143 266.961)"><path d="M1906.045,497.255l4.341,4.341h13.022l-2.17-2.17H1913.1L1907.673,494h-11.937l-4.341,4.341h-8.139L1880,501.6h14.108l4.341-4.341Z" transform="translate(-1878.318 -492.915)" fill="#e3ead3"/><path d="M1917.938,500h-7.6l-4.34,4.341h16.278Z" transform="translate(-1890.21 -495.659)" fill="#c4d7b6"/><path d="M1877,500.682l4.612-4.883h7.325l3.8-3.8h12.48l2.17,2.17h-13.564l-3.744,3.853h-7.109l-2.712,2.659Zm42.866-2.17-1.627-1.628h-8.14l1.628,1.628Z" transform="translate(-1876.946 -492)" fill="#fff"/><path d="M1921.99,508H1876.9l1.139,1.139a7.359,7.359,0,0,0,5.154,2.116h14.813a1.56,1.56,0,0,1,1.139.488l1.791,1.791a1.694,1.694,0,0,0,1.14.488h10.255a1.574,1.574,0,0,0,1.573-1.574V512.4a1.575,1.575,0,0,1,1.574-1.573h5.426A1.691,1.691,0,0,0,1921.99,508Z" transform="translate(-1876.9 -499.318)" fill="#5a9c4b"/></g><g transform="translate(73.711 256.109)"><path d="M163.745,479.883l-6.511,6.511H137.7l3.256-3.256h12.209L161.3,475h17.906l6.511,6.511h12.209l4.883,4.883H181.651l-6.511-6.511Z" transform="translate(-136.966 -473.372)" fill="#e3ead3"/><path d="M180.211,484h11.395l6.511,6.511H173.7Z" transform="translate(-153.432 -477.489)" fill="#c4d7b6"/><path d="M207.89,485.022l-7.6-7.6H189.442L184.016,472H165.784l-3.473,3.256h20.348l5.86,5.969h10.635l3.853,3.8Zm-64.19-3.255,2.442-2.713h12.643l-2.876,2.713Z" transform="translate(-139.71 -472)" fill="#fff"/><path d="M137.352,496h67.391l-1.682,1.791A9.094,9.094,0,0,1,201,499.2a19.41,19.41,0,0,1-9.224,2.17H171.211a.492.492,0,0,0-.38.163l-2.876,2.876a2.411,2.411,0,0,1-1.791.705H150.321a.6.6,0,0,1-.6-.6v-1.953a2.409,2.409,0,0,0-2.387-2.387h-9.224c-2.116.163-2.279-2.659-.76-4.178Z" transform="translate(-136.347 -482.978)" fill="#5a9c4b"/></g><path d="M1838.547,569.339c-.543-7.868-6.241-11.232-13.186-11.232-3.961,0-7.542.868-9.93,3.527a10.3,10.3,0,0,0-15.193-1.519,18.052,18.052,0,0,0-15.79-9.116,18.246,18.246,0,0,0-17.092,12.534.92.92,0,0,0-.379.054,14.666,14.666,0,0,0,1.574,29.246Z" transform="translate(-802.498 -252.025)" fill="#447337"/><g transform="translate(736.314 155.456)"><path d="M1373.854,471.8h6.783l-6.349-3.364c-.217-.163-.108-.434.217-.434h4.287l7.162,3.8h6.783a4.171,4.171,0,0,1,2.224.6l20.4,15.952v.922l-41.943-16.984C1372.878,472.015,1372.986,471.8,1373.854,471.8Z" transform="translate(-1364.63 -369.517)" fill="#5a9c4b"/><path d="M1374,427v3.8h2.713v19.045c1.52,0,2.713-.109,2.713-.76V427Z" transform="translate(-1365.047 -350.764)" fill="#9c452d"/><path d="M1374,432v19.317c0,.651,1.194.76,2.713.76V432Z" transform="translate(-1365.047 -353.051)" fill="#b37624"/><path d="M1359.3,348.177l2.985-16.821h-1.9l8.953-44.656,9.822,44.656h-1.52l3.418,16.821h-3.581l3.2,16.278h-21.053l2.985-16.278Z" transform="translate(-1358.324 -286.591)" fill="#447337"/><path d="M1368.515,286.5l-5.806,44.765h-3.961Zm-7.814,44.765h4.341l-1.736,16.821h2.984l-2.984,16.278h-5.643l2.985-16.278H1357.5Z" transform="translate(-1357.5 -286.5)" fill="#5a9c4b"/></g><g transform="translate(940.333 133.209)"><path d="M1749.768,452.8h6.783l-6.349-3.364c-.217-.163-.108-.434.217-.434h4.287l7.162,3.8h6.782a4.17,4.17,0,0,1,2.224.6l17.689,14.65a.544.544,0,0,1-.542.922l-38.687-15.681C1748.791,453.015,1748.954,452.8,1749.768,452.8Z" transform="translate(-1740.598 -338.58)" fill="#5a9c4b"/><path d="M1750,391v31.254c0,.651,1.194.76,2.713.76V391Z" transform="translate(-1741.047 -312.051)" fill="#b37624"/><path d="M1750,386v3.8h2.713v30.983c1.52,0,2.713-.109,2.713-.76V386Z" transform="translate(-1741.047 -309.764)" fill="#9c452d"/><path d="M1735.3,306.092l2.984-16.821h-1.9l8.953-43.571,9.822,44.656h-1.52l3.418,16.821h-3.582l3.2,16.278h-16.44l-1.085-1.085h-3.527l2.985-16.278Z" transform="translate(-1734.324 -245.592)" fill="#447337"/><path d="M1744.515,245.5l-5.807,44.765h-3.961Zm-7.814,44.765h4.341l-1.736,16.821h2.984l-2.984,16.278h-5.643l2.985-16.278H1733.5Z" transform="translate(-1733.5 -245.5)" fill="#5a9c4b"/></g><g transform="translate(211.641 256.652)"><path d="M406.231,481.256h8.682V478h5.752l5.1,3.256v8.139H398.2Z" transform="translate(-394.048 -475.287)" fill="#c4d7b6"/><path d="M434.046,475.713H429V473h8.41l5.155,5.426v4.612l4.5,4.07h-7.217v-6.566Z" transform="translate(-408.135 -473)" fill="#e3ead3"/><path d="M419,494.883h11.395L425.511,490H419Z" transform="translate(-403.561 -480.776)" fill="#abbda0"/><path d="M390.9,502.907,394.7,499h34.835l-3.907,3.906a7.06,7.06,0,0,1-4.992,2.062h-2.713a4.679,4.679,0,0,0-3.31,1.356l-.922.922a3.35,3.35,0,0,1-2.279.977h-8.519a2.316,2.316,0,0,1-2.333-2.333v-.922h-8.79a1.211,1.211,0,0,1-.868-2.062Z" transform="translate(-390.547 -484.892)" fill="#5a9c4b"/></g><path d="M710.929,483.247h.271a2.754,2.754,0,0,0,1.953-.814L734.044,461h-2.713l-20.782,21.324A.532.532,0,0,0,710.929,483.247Z" transform="translate(-325.192 -210.859)" fill="#6fbf5c"/><path d="M687.108,521.047a5.557,5.557,0,0,1,.651.163,8.521,8.521,0,0,1,5.046,4.232,10.007,10.007,0,0,0-4.72-7.217l.163-.325c.271.109.542.217.76.325a10.437,10.437,0,0,1,5.209,5.969,7.1,7.1,0,0,1,.38,2.388h-3.2a3.416,3.416,0,0,0-.488-1.791A7.777,7.777,0,0,0,687,521.373l.108-.325Z" transform="translate(-314.502 -236.885)" fill="#5a9c4b"/><g transform="translate(418.41 243.087)"><path d="M782.224,452.341h7.6l2.713,2.713h8.682L794.162,448h-7.6l-2.713,2.713h-6.511L773,455.054h6.511Z" transform="translate(-772.248 -448)" fill="#e3ead3"/><path d="M786.713,456,784,458.713h14.108L795.395,456Z" transform="translate(-777.279 -451.659)" fill="#c4d7b6"/><path d="M802.054,449.628l5.426,5.426h3.8L804.224,448h-7.6L795,449.628Z" transform="translate(-782.311 -448)" fill="#fff" opacity="0.8"/><path d="M800.8,461l-6.511,4.721a3.623,3.623,0,0,1-2.225.705h-8.139a1.228,1.228,0,0,1-1.248-1.248,1.459,1.459,0,0,0-1.465-1.465h-8.139a1.446,1.446,0,0,1-.706-2.713Z" transform="translate(-771.614 -453.946)" fill="#6fbf5c"/></g><path d="M782.689,453.67c-.38.109-.651.163-.977.271a12.26,12.26,0,0,0-7.216,6.131,14.243,14.243,0,0,1,6.782-10.364l-.217-.488a10.594,10.594,0,0,0-1.085.488,15.2,15.2,0,0,0-7.434,8.573A10.252,10.252,0,0,0,772,461.7h4.612a4.949,4.949,0,0,1,.705-2.6,11.318,11.318,0,0,1,5.589-4.938Zm85.135,38.416,12.534-.868A25.205,25.205,0,0,0,886,490.187l1.357-.434a25.2,25.2,0,0,0,14.867-12.317l-.109-.109a72.116,72.116,0,0,1-36.409,9.5H864.46a73.147,73.147,0,0,1-18.123-2.659v.38l6.782,4.069A25.712,25.712,0,0,0,867.824,492.086ZM1020.187,431.1l-2.875-5.86a5.4,5.4,0,0,0-4.992-3.039,48.314,48.314,0,0,0-13.837,2.171l19.588,8.9a1.647,1.647,0,0,0,2.225-.814A1.982,1.982,0,0,0,1020.187,431.1Z" transform="translate(-353.381 -193.111)" fill="#5a9c4b"/><g transform="translate(844.835 180.959)"><path d="M1573.854,518.8h6.783l-6.349-3.364c-.217-.163-.108-.434.217-.434h4.287l7.163,3.8h6.782a4.171,4.171,0,0,1,2.224.6l20.4,15.953v.922l-41.943-16.984C1572.878,519.015,1572.986,518.8,1573.854,518.8Z" transform="translate(-1564.63 -416.517)" fill="#5a9c4b"/><path d="M1574,474v3.8h2.713v19.045c1.52,0,2.713-.108,2.713-.76V474Z" transform="translate(-1565.047 -397.764)" fill="#9c452d"/><path d="M1574,479v19.317c0,.651,1.193.76,2.713.76V479Z" transform="translate(-1565.047 -400.051)" fill="#b37624"/><path d="M1559.3,395.177l2.984-16.821h-1.9l8.953-44.656,9.821,44.656h-1.519l3.419,16.821h-3.582l3.2,16.278h-21.053l2.985-16.278Z" transform="translate(-1558.324 -333.591)" fill="#447337"/><path d="M1568.515,333.5l-5.806,44.765h-3.961Zm-7.813,44.765h4.341l-1.737,16.821h2.985l-2.985,16.278h-5.643l2.985-16.278H1557.5Z" transform="translate(-1557.5 -333.5)" fill="#5a9c4b"/></g><g transform="translate(324.579 197.834)"><path d="M614.538,439.543h-3.2l2.225-.543h-1.953l-2.442.543h-2.333a12.349,12.349,0,0,0-2.116.868l-5.914,3.256c-.217.109-.109.38.163.326l15.79-3.961C614.918,440.031,615.135,439.543,614.538,439.543Z" transform="translate(-598.687 -398.63)" fill="#5a9c4b"/><path d="M622,418v11.34a2.015,2.015,0,0,0,1.248.326c.542,0,.977-.163.922-.326V418Z" transform="translate(-609.35 -389.025)" fill="#b37624"/><path d="M624.17,417H622v2.713h2.17Z" transform="translate(-609.35 -388.568)" fill="#9c452d"/><path d="M625,427.3l1.628-.488V426H625Z" transform="translate(-610.723 -392.684)" fill="#b37624"/><path d="M616.8,387.064l4.4-22.464,3.744,22.464h-1.193l1.193,7.6H616.8l1.248-7.6Z" transform="translate(-606.972 -364.6)" fill="#5a9c4b"/><path d="M626.653,387.064,624.7,364.6l4.124,22.464H627.63l1.194,7.6h-2.17l-1.194-7.6Z" transform="translate(-610.585 -364.6)" fill="#6fbf5c"/></g></g></g></g></g></svg>