<svg xmlns="http://www.w3.org/2000/svg" xmlns:xlink="http://www.w3.org/1999/xlink" width="15.822" height="15.822" viewBox="0 0 15.822 15.822"><defs><linearGradient id="a" x1="-0.162" y1="0.297" x2="1.018" y2="0.921" gradientUnits="objectBoundingBox"><stop offset="0" stop-color="#010101" stop-opacity="0.102"/><stop offset="1" stop-color="#010101" stop-opacity="0"/></linearGradient><linearGradient id="b" x1="-0.075" y1="0.232" x2="1.075" y2="0.768" gradientUnits="objectBoundingBox"><stop offset="0" stop-color="#fff" stop-opacity="0.2"/><stop offset="1" stop-color="#fff" stop-opacity="0"/></linearGradient></defs><path d="M15.384,16.822H2.438A1.438,1.438,0,0,1,1,15.384V2.438A1.438,1.438,0,0,1,2.438,1H15.384a1.438,1.438,0,0,1,1.438,1.438V15.384A1.438,1.438,0,0,1,15.384,16.822Z" transform="translate(-1 -1)" fill="#3c5a9a"/><path d="M15.384,1H2.438A1.438,1.438,0,0,0,1,2.438v.18A1.438,1.438,0,0,1,2.438,1.18H15.384a1.438,1.438,0,0,1,1.438,1.438v-.18A1.438,1.438,0,0,0,15.384,1Z" transform="translate(-1 -1)" fill="#fff" opacity="0.2"/><path d="M10.444,18.226V12.473H9.021V10.315h1.423V8.877A2.877,2.877,0,0,1,13.321,6h2.158V8.158H13.321a.719.719,0,0,0-.719.719v1.438h2.877l-.36,2.158H12.6v5.754Z" transform="translate(-3.252 -2.404)" fill="#fff"/><path d="M15.384,22.188H2.438A1.438,1.438,0,0,1,1,20.75v.18a1.438,1.438,0,0,0,1.438,1.438H15.384a1.438,1.438,0,0,0,1.438-1.438v-.18A1.438,1.438,0,0,1,15.384,22.188Z" transform="translate(-1 -6.546)" fill="#010101" opacity="0.1"/><path d="M16.877,6V8.158H14.719A.719.719,0,0,0,14,8.877v1.438h2.877l-.36,2.158H14v5.754h5.034a1.438,1.438,0,0,0,1.438-1.438V9.6Z" transform="translate(-4.65 -2.404)" fill="url(#a)"/><path d="M15.384,16.822H2.438A1.438,1.438,0,0,1,1,15.384V2.438A1.438,1.438,0,0,1,2.438,1H15.384a1.438,1.438,0,0,1,1.438,1.438V15.384A1.438,1.438,0,0,1,15.384,16.822Z" transform="translate(-1 -1)" fill="url(#b)"/></svg>