<svg xmlns="http://www.w3.org/2000/svg" xmlns:xlink="http://www.w3.org/1999/xlink" width="15.822" height="15.822" viewBox="0 0 15.822 15.822"><defs><radialGradient id="a" cx="2.049" cy="16.253" r="19.286" gradientUnits="userSpaceOnUse"><stop offset="0" stop-color="#ffd35a"/><stop offset="0.255" stop-color="#f7964c"/><stop offset="0.6" stop-color="#f05b70"/><stop offset="0.717" stop-color="#bd6186"/><stop offset="0.853" stop-color="#85659b"/><stop offset="0.951" stop-color="#5c66a9"/><stop offset="1" stop-color="#4766b0"/></radialGradient><linearGradient id="b" x1="-0.021" y1="0.257" x2="1.021" y2="0.743" gradientUnits="objectBoundingBox"><stop offset="0" stop-color="#fff" stop-opacity="0.2"/><stop offset="1" stop-color="#fff" stop-opacity="0"/></linearGradient></defs><path d="M12.788,16.384H5.6a3.6,3.6,0,0,1-3.6-3.6V5.6A3.6,3.6,0,0,1,5.6,2h7.192a3.6,3.6,0,0,1,3.6,3.6v7.192A3.6,3.6,0,0,1,12.788,16.384Z" transform="translate(-1.281 -1.281)" fill="#fff"/><path d="M12.523,1H5.3A4.3,4.3,0,0,0,1,5.3v7.224a4.3,4.3,0,0,0,4.3,4.3h7.224a4.3,4.3,0,0,0,4.3-4.3V5.3A4.3,4.3,0,0,0,12.523,1Zm2.861,11.523a2.864,2.864,0,0,1-2.861,2.861H5.3a2.864,2.864,0,0,1-2.861-2.861V5.3A2.864,2.864,0,0,1,5.3,2.438h7.224A2.864,2.864,0,0,1,15.384,5.3ZM8.911,4.6a4.315,4.315,0,1,0,4.315,4.315A4.32,4.32,0,0,0,8.911,4.6Zm0,7.192a2.877,2.877,0,1,1,2.877-2.877A2.88,2.88,0,0,1,8.911,11.788Zm4.315-7.911a.719.719,0,1,0,.719.719A.72.72,0,0,0,13.226,3.877Z" transform="translate(-1 -1)" fill="url(#a)"/><path d="M12.523,1H5.3A4.3,4.3,0,0,0,1,5.3v7.224a4.3,4.3,0,0,0,4.3,4.3h7.224a4.3,4.3,0,0,0,4.3-4.3V5.3A4.3,4.3,0,0,0,12.523,1Z" transform="translate(-1 -1)" fill="url(#b)"/></svg>