<svg xmlns="http://www.w3.org/2000/svg" xmlns:xlink="http://www.w3.org/1999/xlink" width="17.261" height="17.261" viewBox="0 0 17.261 17.261"><defs><linearGradient id="a" x1="-0.01" y1="0.204" x2="0.976" y2="0.664" gradientUnits="objectBoundingBox"><stop offset="0" stop-color="#fff" stop-opacity="0.2"/><stop offset="1" stop-color="#fff" stop-opacity="0"/></linearGradient></defs><path d="M1.576,0,0,3.151V15.1H4.315v2.158H6.262L8.42,15.1h4.315l4.526-4.526V0ZM15.822,9.858l-3.088,3.088H8.42L5.754,15.612V12.946h-3.6V1.438H15.822Z" fill="#82469b"/><path d="M1.576,0,0,3.151v.18L1.576.18H17.261V0Z" fill="#fff" opacity="0.2"/><rect width="4.315" height="0.18" transform="translate(0 14.923)" fill="#010101" opacity="0.1"/><path d="M10.1,18.983,7.947,21.141H6v.18H7.947L10.1,19.163H14.42l4.526-4.526v-.18L14.42,18.983Z" transform="translate(-1.685 -4.06)" fill="#010101" opacity="0.1"/><g transform="translate(6.473 4.315)"><path d="M9.36,11.034a.359.359,0,0,1-.36-.36V6.36a.36.36,0,0,1,.719,0v4.315A.359.359,0,0,1,9.36,11.034Z" transform="translate(-9 -6)" fill="#82469b"/></g><g transform="translate(10.788 4.315)"><path d="M15.36,11.034a.359.359,0,0,1-.36-.36V6.36a.36.36,0,1,1,.719,0v4.315A.359.359,0,0,1,15.36,11.034Z" transform="translate(-15 -6)" fill="#82469b"/></g><path d="M1.576,0,0,3.151V15.1H4.315v2.158H6.262L8.42,15.1h4.315l4.526-4.526V0ZM15.822,9.858l-3.088,3.088H8.42L5.754,15.612V12.946h-3.6V1.438H15.822ZM6.832,9.35a.359.359,0,0,0,.36-.36V4.675a.36.36,0,1,0-.719,0V8.99A.359.359,0,0,0,6.832,9.35Zm4.315,0a.359.359,0,0,0,.36-.36V4.675a.36.36,0,1,0-.719,0V8.99A.359.359,0,0,0,11.148,9.35Z" fill="url(#a)"/></svg>