<svg xmlns="http://www.w3.org/2000/svg" width="19.6" height="15.929" viewBox="0 0 19.6 15.929"><g transform="translate(-540.18 -569.858)"><path d="M546.343,585.787a11.364,11.364,0,0,0,11.441-11.441q0-.261-.011-.52a8.178,8.178,0,0,0,2.006-2.082,8.019,8.019,0,0,1-2.309.633,4.036,4.036,0,0,0,1.768-2.224,8.064,8.064,0,0,1-2.554.976,4.025,4.025,0,0,0-6.853,3.667,11.417,11.417,0,0,1-8.289-4.2,4.025,4.025,0,0,0,1.245,5.369,3.992,3.992,0,0,1-1.821-.5c0,.017,0,.033,0,.051a4.022,4.022,0,0,0,3.226,3.942,4.015,4.015,0,0,1-1.816.069,4.025,4.025,0,0,0,3.757,2.793,8.067,8.067,0,0,1-4.994,1.721,8.154,8.154,0,0,1-.959-.056,11.383,11.383,0,0,0,6.164,1.806" fill="#fff"/></g></svg>