<svg xmlns="http://www.w3.org/2000/svg" xmlns:xlink="http://www.w3.org/1999/xlink" width="17.261" height="12.946" viewBox="0 0 17.261 12.946"><defs><linearGradient id="a" x1="-0.071" y1="0.111" x2="0.75" y2="1.389" gradientUnits="objectBoundingBox"><stop offset="0" stop-color="#010101" stop-opacity="0"/><stop offset="1" stop-color="#010101" stop-opacity="0.102"/></linearGradient><linearGradient id="b" x1="0.208" y1="0.182" x2="0.795" y2="1.093" gradientUnits="objectBoundingBox"><stop offset="0" stop-color="#010101" stop-opacity="0.102"/><stop offset="1" stop-color="#010101" stop-opacity="0"/></linearGradient><linearGradient id="c" y1="0.189" x2="1" y2="0.811" gradientUnits="objectBoundingBox"><stop offset="0" stop-color="#fff" stop-opacity="0.2"/><stop offset="1" stop-color="#fff" stop-opacity="0"/></linearGradient></defs><path d="M15.056,3.484,13.69,3.313a40.992,40.992,0,0,0-10.119,0l-1.366.171A2.522,2.522,0,0,0,0,5.982v6.979a2.522,2.522,0,0,0,2.205,2.5l1.366.171a40.97,40.97,0,0,0,5.06.315,40.967,40.967,0,0,0,5.06-.315l1.366-.171a2.522,2.522,0,0,0,2.205-2.5V5.982A2.522,2.522,0,0,0,15.056,3.484Z" transform="translate(0 -3)" fill="#ee3325"/><path d="M15.056,3.486,13.69,3.316a41,41,0,0,0-10.119,0l-1.366.171A2.521,2.521,0,0,0,0,5.984v.18a2.521,2.521,0,0,1,2.205-2.5L3.571,3.5a41,41,0,0,1,10.119,0l1.366.171a2.521,2.521,0,0,1,2.2,2.5v-.18A2.521,2.521,0,0,0,15.056,3.486Z" transform="translate(0 -3.001)" fill="#fff" opacity="0.2"/><path d="M15.056,19.1l-1.366.171a40.962,40.962,0,0,1-5.06.315,40.971,40.971,0,0,1-5.06-.315L2.205,19.1A2.521,2.521,0,0,1,0,16.6v.18a2.521,2.521,0,0,0,2.205,2.5l1.366.171a40.968,40.968,0,0,0,5.06.315,40.971,40.971,0,0,0,5.06-.315l1.366-.171a2.521,2.521,0,0,0,2.205-2.5V16.6A2.521,2.521,0,0,1,15.056,19.1Z" transform="translate(0 -6.819)" fill="#010101" opacity="0.1"/><g transform="translate(6.832 3.236)"><path d="M9.5,7.5v6.473l5.034-3.236Z" transform="translate(-9.5 -7.5)" fill="#fff"/></g><g transform="translate(6.832 3.236)"><path d="M9.5,7.5v3.236h5.034Z" transform="translate(-9.5 -7.5)" fill="url(#a)"/></g><path d="M14.534,12,9.5,15.236l3.193,3.193c1.226-.042,2.452-.12,3.665-.271l1.366-.171a2.508,2.508,0,0,0,1.74-1.058Z" transform="translate(-2.668 -5.527)" fill="url(#b)"/><path d="M15.056,3.484,13.69,3.313a40.992,40.992,0,0,0-10.119,0l-1.366.171A2.522,2.522,0,0,0,0,5.982v6.979a2.522,2.522,0,0,0,2.205,2.5l1.366.171a40.97,40.97,0,0,0,5.06.315,40.967,40.967,0,0,0,5.06-.315l1.366-.171a2.522,2.522,0,0,0,2.205-2.5V5.982A2.522,2.522,0,0,0,15.056,3.484Z" transform="translate(0 -3)" fill="url(#c)"/></svg>