<svg xmlns="http://www.w3.org/2000/svg" width="43.09" height="38.657" viewBox="0 0 43.09 38.657"><g transform="translate(-501.001 -103.996)"><path d="M258.809,257.738a12.252,12.252,0,0,1-1.445,5.61,9.632,9.632,0,0,1-1.414,2.023,3.217,3.217,0,0,1-2.559,1.143,1.976,1.976,0,0,1-1.82-1.994,5.515,5.515,0,0,1,.866-2.428,9.3,9.3,0,0,0,1.337-4.112,7.848,7.848,0,0,0-2.6-6.339,8.3,8.3,0,0,0-4.851-2.053,7.677,7.677,0,0,0-4.307.851c-.853.421-1.569,1.031-2.371,1.518a4.872,4.872,0,0,1-2.048.817,4.109,4.109,0,0,1-2.558-.744,24.04,24.04,0,0,0-2.893-1.791,8.356,8.356,0,0,0-6.9.116,6.371,6.371,0,0,0-1.767,1.164,8.98,8.98,0,0,0-1.209,1.344,8.333,8.333,0,0,0-1.458,3.958,7.665,7.665,0,0,0,.892,4.44,17.832,17.832,0,0,1,1.177,2.471,2.282,2.282,0,0,1-.19,1.91,2.063,2.063,0,0,1-2.643.731,5.224,5.224,0,0,1-2.232-2.013,11.312,11.312,0,0,1-1.722-3.81,11.45,11.45,0,0,1-.225-4.6,17.141,17.141,0,0,1,.5-2.307,13.656,13.656,0,0,1,2.031-3.951,10.763,10.763,0,0,1,1.355-1.546,12.76,12.76,0,0,1,5.106-2.918,13.421,13.421,0,0,1,7.965,0c1.007.313,1.949.775,2.941,1.117a4.725,4.725,0,0,0,3.438-.149,23.364,23.364,0,0,1,3.219-1.2,12.582,12.582,0,0,1,4.791-.29,14.449,14.449,0,0,1,3.382.852,12.9,12.9,0,0,1,3.326,1.878,12.314,12.314,0,0,1,1.453,1.3,14.745,14.745,0,0,1,1.648,2.236A14.351,14.351,0,0,1,258.809,257.738Z" transform="translate(285.279 -140.596)" fill="#e94094" fill-rule="evenodd"/><path d="M338.6,574.712c-.107-.678.414-1.1.873-1.532a1.25,1.25,0,0,1,.783-.233,3.846,3.846,0,0,1,2.7.892c1.087.834,2.035,1.815,3.056,2.718.5.44.922.95,1.443,1.355a10.8,10.8,0,0,0,2.745,2,2.817,2.817,0,0,0,2.469-.3,6.381,6.381,0,0,0,1.269-1.018c1.479-1.431,2.957-2.865,4.483-4.247a4.335,4.335,0,0,1,2.159-1.2,2.138,2.138,0,0,1,2.376.946,2.02,2.02,0,0,1,.12,1.675,4.6,4.6,0,0,1-1.077,1.772c-2.318,2.53-4.877,4.829-7.327,7.232a6.579,6.579,0,0,1-2.625,1.676,2.015,2.015,0,0,1-.9.09,4.992,4.992,0,0,1-2.707-1.158c-.426-.373-.859-.741-1.293-1.1-.654-.55-1.206-1.2-1.867-1.73-.524-.418-.929-.943-1.452-1.344-.7-.538-1.245-1.228-1.919-1.781a21.653,21.653,0,0,1-1.728-1.6,5.285,5.285,0,0,1-1.536-2.366A1.911,1.911,0,0,1,338.6,574.712Z" transform="translate(171.53 -443.905)" fill="#e94094" fill-rule="evenodd"/></g></svg>