<?xml version="1.0" encoding="utf-8"?>
<!-- Generator: Adobe Illustrator 16.0.0, SVG Export Plug-In . SVG Version: 6.00 Build 0)  -->
<!DOCTYPE svg PUBLIC "-//W3C//DTD SVG 1.1//EN" "http://www.w3.org/Graphics/SVG/1.1/DTD/svg11.dtd">
<svg version="1.1" id="idea_xA0_Image_1_" xmlns="http://www.w3.org/2000/svg" xmlns:xlink="http://www.w3.org/1999/xlink" x="0px"
	 y="0px" width="1000px" height="1000px" viewBox="0 0 1000 1000" enable-background="new 0 0 1000 1000" xml:space="preserve">
<g>
	<g>
		<path fill-rule="evenodd" clip-rule="evenodd" fill="#FDFDFD" d="M1001,501.5c0,165-0.015,330,0.094,495
			c0.003,3.749-0.845,4.595-4.594,4.593c-330.333-0.101-660.667-0.101-991,0c-3.749,0.001-4.594-0.844-4.593-4.593
			c0.101-330.333,0.101-660.667,0-991C0.906,1.751,1.751,0.905,5.5,0.907c330.333,0.101,660.667,0.101,991,0
			c3.749-0.002,4.597,0.844,4.594,4.593C1000.985,170.833,1001,336.167,1001,501.5z"/>
		<path fill-rule="evenodd" clip-rule="evenodd" fill="#E94094" d="M786.313,421.889c-0.436,26.712-6.768,51.839-19.135,75.653
			c-5.17,9.957-11.356,19.112-18.719,27.283c-8.837,9.809-20.006,15.96-33.886,15.411c-13.452-0.531-24.492-13.367-24.103-26.891
			c0.354-12.294,6.064-22.373,11.472-32.746c9.1-17.46,17.286-35.569,17.7-55.455c0.688-33.089-9.093-62.332-34.457-85.492
			c-18.415-16.814-39.843-25.04-64.242-27.681c-20.394-2.206-38.976,2.399-57.031,11.471c-11.296,5.675-20.776,13.908-31.403,20.467
			c-8.387,5.176-16.964,10.022-27.126,11.024c-12.688,1.251-23.561-3.676-33.876-10.032c-12.855-7.922-24.337-18.081-38.315-24.161
			c-11.311-4.92-23.036-7.915-35.538-8.968c-19.79-1.666-38.243,2.554-55.897,10.539c-8.505,3.847-16.409,9.06-23.396,15.697
			c-5.915,5.62-11.342,11.463-16.012,18.127c-11.263,16.069-17.096,34.112-19.306,53.376c-2.426,21.147,2.372,41.05,11.807,59.873
			c5.498,10.97,11.754,21.523,15.582,33.319c2.963,9.133,1.924,17.681-2.516,25.754c-7.145,12.994-23.06,14.983-34.999,9.864
			c-12.959-5.558-21.861-15.735-29.553-27.148c-10.638-15.785-18.531-32.921-22.806-51.383c-4.721-20.386-6.508-41-2.986-62.051
			c1.761-10.523,3.523-20.956,6.679-31.119c5.979-19.251,15.144-36.901,26.892-53.279c5.379-7.499,11.332-14.593,17.947-20.844
			c19.401-18.33,41.993-31.621,67.619-39.348c35.112-10.587,70.21-11.182,105.471-0.033c13.341,4.219,25.804,10.453,38.952,15.064
			c15.575,5.462,30.495,4.183,45.533-2.012c14.047-5.786,27.775-12.474,42.634-16.142c20.91-5.163,41.969-7.037,63.44-3.913
			c15.375,2.236,30.414,5.6,44.784,11.495c15.782,6.476,30.689,14.375,44.047,25.33c6.749,5.535,13.542,11.064,19.242,17.506
			c8.213,9.278,15.411,19.379,21.83,30.153C777.863,356.149,786.869,396.182,786.313,421.889z"/>
		<path fill-rule="evenodd" clip-rule="evenodd" fill="#E94094" d="M338.835,596.886c-1.395-9.147,5.407-14.797,11.401-20.664
			c2.633-2.576,6.669-2.854,10.224-3.14c13.415-1.079,24.937,3.901,35.198,12.033c14.193,11.246,26.573,24.484,39.91,36.657
			c6.494,5.927,12.036,12.809,18.843,18.272c11.652,9.354,21.306,21.402,35.842,26.951c11.494,4.387,22.113,1.89,32.239-4.031
			c6.25-3.654,11.437-8.603,16.57-13.732c19.313-19.3,38.612-38.632,58.543-57.283c7.92-7.412,16.904-14.156,28.198-16.124
			c13.059-2.275,24.225,1.18,31.03,12.757c4.042,6.876,3.847,14.826,1.569,22.59c-2.688,9.166-7.782,16.824-14.06,23.9
			c-30.266,34.114-63.685,65.131-95.691,97.533c-9.803,9.925-20.78,18.208-34.286,22.598c-3.847,1.25-7.663,1.796-11.768,1.211
			c-13.278-1.893-25.167-6.411-35.347-15.615c-5.561-5.029-11.218-9.989-16.88-14.901c-8.542-7.412-15.743-16.224-24.383-23.331
			c-6.846-5.631-12.129-12.714-18.961-18.127c-9.15-7.25-16.254-16.566-25.056-24.019c-7.987-6.764-15.444-14.067-22.569-21.578
			c-8.689-9.158-16.954-18.976-20.057-31.905C338.59,603.781,338.345,600.756,338.835,596.886z"/>
	</g>
</g>
</svg>
